<svg width="54" height="53" viewBox="0 0 54 53" fill="none" xmlns="http://www.w3.org/2000/svg">
<path d="M26.502 10.744C23.3856 10.744 20.3392 11.6681 17.748 13.3995C15.1568 15.1308 13.1372 17.5917 11.9445 20.4709C10.7519 23.35 10.4398 26.5182 11.0477 29.5747C11.6556 32.6312 13.1562 35.4389 15.3598 37.6425C17.5633 39.8462 20.3709 41.347 23.4273 41.9551C26.4838 42.5632 29.652 42.2513 32.5313 41.0589C35.4105 39.8664 37.8715 37.847 39.603 35.2559C41.3345 32.6648 42.2588 29.6184 42.259 26.502C42.2545 22.3243 40.593 18.3189 37.639 15.3647C34.685 12.4106 30.6797 10.7488 26.502 10.744ZM26.502 41.284C23.5806 41.2836 20.7248 40.417 18.2959 38.7937C15.8669 37.1704 13.9739 34.8632 12.8561 32.1641C11.7383 29.4649 11.4459 26.495 12.0159 23.6297C12.586 20.7644 13.9928 18.1324 16.0586 16.0667C18.1244 14.0009 20.7563 12.594 23.6216 12.024C26.4869 11.4539 29.4569 11.7463 32.1561 12.8641C34.8552 13.9819 37.1623 15.875 38.7856 18.3039C40.409 20.7328 41.2756 23.5886 41.276 26.51C41.2747 30.4284 39.7173 34.186 36.9463 36.9564C34.1752 39.7269 30.4174 41.2835 26.499 41.284H26.502Z" fill="white"/>
<path d="M26.5 7.22205C26.155 7.22205 25.817 7.22903 25.471 7.25003C25.8774 7.38659 26.2351 7.63895 26.5 7.97604C26.7664 7.63736 27.1267 7.38479 27.536 7.25003C27.191 7.22903 26.845 7.22205 26.5 7.22205ZM26.5 45.031C26.2323 45.3652 25.8756 45.6169 25.471 45.757C25.816 45.778 26.154 45.785 26.5 45.785C26.846 45.785 27.191 45.778 27.529 45.75C27.1227 45.6169 26.7647 45.3668 26.5 45.031ZM7.252 25.478C7.231 25.816 7.224 26.154 7.224 26.5C7.224 26.846 7.231 27.176 7.252 27.515C7.3898 27.115 7.6393 26.7627 7.97099 26.5C7.63543 26.2381 7.3852 25.8824 7.252 25.478ZM45.519 28.458L45.533 28.275C45.5158 27.9503 45.4204 27.6346 45.2548 27.3548C45.0892 27.075 44.8583 26.8393 44.582 26.668C44.552 26.6511 44.5271 26.6266 44.5098 26.5969C44.4924 26.5672 44.4833 26.5334 44.4833 26.499C44.4833 26.4646 44.4924 26.4309 44.5098 26.4012C44.5271 26.3715 44.552 26.3469 44.582 26.33C44.8624 26.1547 45.0957 25.9134 45.2615 25.6272C45.4273 25.341 45.5205 25.0186 45.533 24.688L45.519 24.547C45.5181 24.5172 45.5232 24.4875 45.5341 24.4597C45.5449 24.4318 45.5612 24.4065 45.582 24.385C45.5931 24.3738 45.6063 24.3648 45.6209 24.3588C45.6355 24.3528 45.6512 24.3498 45.667 24.35C45.2698 20.7392 43.8494 17.3169 41.573 14.486C41.5467 14.4996 41.5176 14.5068 41.488 14.507H41.481C41.4532 14.5079 41.4256 14.5027 41.4001 14.4918C41.3745 14.4809 41.3516 14.4646 41.333 14.444L41.206 14.303C40.9654 14.0866 40.6762 13.9313 40.3629 13.8504C40.0495 13.7695 39.7213 13.7652 39.406 13.838C39.3728 13.8476 39.3377 13.8481 39.3043 13.8395C39.2709 13.8309 39.2404 13.8134 39.216 13.789C39.1912 13.7649 39.1735 13.7344 39.1649 13.7009C39.1563 13.6674 39.157 13.6322 39.167 13.599C39.2398 13.2771 39.2336 12.9424 39.1489 12.6234C39.0643 12.3043 38.9038 12.0106 38.681 11.767L38.568 11.675C38.5465 11.6556 38.5297 11.6315 38.5188 11.6047C38.5079 11.5779 38.5032 11.549 38.505 11.5201C38.5052 11.4905 38.5124 11.4613 38.526 11.435C35.6909 9.16053 32.2653 7.74295 28.652 7.34903C28.6451 7.37796 28.6306 7.40453 28.61 7.42603C28.567 7.464 28.5123 7.48623 28.455 7.48904L28.272 7.47504C27.948 7.4913 27.6329 7.58643 27.3541 7.75217C27.0753 7.9179 26.8411 8.14922 26.672 8.42603C26.6535 8.45624 26.6277 8.48129 26.5969 8.49878C26.5661 8.51627 26.5314 8.52564 26.496 8.52603C26.4614 8.52633 26.4274 8.5172 26.3976 8.49957C26.3678 8.48195 26.3434 8.4565 26.327 8.42603C26.1517 8.14557 25.9104 7.91229 25.6241 7.74652C25.3379 7.58076 25.0155 7.48756 24.685 7.47504L24.544 7.48904C24.4839 7.48952 24.426 7.46696 24.382 7.42603C24.3604 7.4029 24.3479 7.37268 24.347 7.34103C20.7337 7.73807 17.3088 9.15839 14.475 11.435C14.4875 11.4622 14.4969 11.4908 14.503 11.5201C14.5007 11.5789 14.4756 11.6345 14.433 11.675L14.299 11.795C14.0823 12.0353 13.9273 12.3248 13.8475 12.6384C13.7677 12.952 13.7655 13.2804 13.841 13.595C13.8481 13.6289 13.8467 13.6639 13.8369 13.6971C13.8272 13.7302 13.8093 13.7605 13.785 13.785C13.7608 13.8098 13.7304 13.8275 13.6969 13.8361C13.6634 13.8448 13.6281 13.8441 13.595 13.834C13.2726 13.7609 12.9372 13.7676 12.6179 13.8535C12.2986 13.9394 12.0052 14.1019 11.763 14.327L11.671 14.44C11.652 14.4602 11.6291 14.4762 11.6036 14.4871C11.5781 14.4979 11.5507 14.5033 11.523 14.503H11.516C11.4841 14.5035 11.4525 14.4963 11.424 14.482C9.15372 17.3159 7.73624 20.737 7.33699 24.346C7.3665 24.3546 7.39501 24.3663 7.422 24.381C7.44281 24.4025 7.4591 24.4278 7.46992 24.4557C7.48075 24.4835 7.48586 24.5132 7.48499 24.543L7.47099 24.719C7.48817 25.0437 7.58363 25.3595 7.74922 25.6393C7.91482 25.9191 8.14564 26.1547 8.422 26.326C8.4505 26.3441 8.47397 26.369 8.49023 26.3986C8.5065 26.4281 8.51505 26.4613 8.51505 26.495C8.51505 26.5288 8.5065 26.5619 8.49023 26.5915C8.47397 26.621 8.4505 26.646 8.422 26.664C8.14356 26.8382 7.91156 27.0773 7.74591 27.3609C7.58026 27.6444 7.48592 27.964 7.47099 28.292L7.48499 28.454C7.48521 28.4828 7.47976 28.5112 7.46895 28.5378C7.45814 28.5644 7.44219 28.5886 7.422 28.609C7.39678 28.6286 7.36786 28.6429 7.33699 28.651C7.74261 32.2585 9.15938 35.6779 11.424 38.515C11.4525 38.5008 11.4841 38.4936 11.516 38.494C11.545 38.4916 11.5741 38.4959 11.6011 38.5069C11.628 38.5178 11.652 38.535 11.671 38.557L11.791 38.691C12.0307 38.909 12.3198 39.0652 12.6335 39.1463C12.9471 39.2273 13.2758 39.2306 13.591 39.156C13.6243 39.1494 13.6587 39.1504 13.6916 39.1588C13.7245 39.1673 13.755 39.1831 13.781 39.205C13.8045 39.2301 13.8219 39.2604 13.8316 39.2934C13.8413 39.3264 13.8432 39.3612 13.837 39.3951C13.7608 39.7179 13.7652 40.0546 13.85 40.3753C13.9348 40.696 14.0972 40.991 14.323 41.234L14.429 41.326C14.4513 41.3452 14.4692 41.3689 14.4813 41.3957C14.4934 41.4225 14.4994 41.4517 14.499 41.481C14.4929 41.5103 14.4835 41.5388 14.471 41.566C17.3043 43.8384 20.7253 45.2583 24.335 45.66C24.336 45.6438 24.3403 45.6279 24.3475 45.6133C24.3547 45.5987 24.3647 45.5857 24.377 45.575C24.3943 45.5511 24.4181 45.5325 24.4455 45.5213C24.4729 45.5102 24.5029 45.507 24.532 45.512L24.715 45.519C25.0397 45.5019 25.3554 45.4064 25.6352 45.2408C25.9151 45.0752 26.1507 44.8444 26.322 44.568C26.34 44.5395 26.365 44.5161 26.3945 44.4998C26.4241 44.4835 26.4573 44.475 26.491 44.475C26.5247 44.475 26.5579 44.4835 26.5874 44.4998C26.617 44.5161 26.642 44.5395 26.66 44.568C26.8333 44.8456 27.0713 45.0772 27.3536 45.2428C27.6359 45.4084 27.9541 45.5032 28.281 45.519L28.443 45.512C28.4732 45.5069 28.5042 45.51 28.5327 45.5211C28.5612 45.5322 28.5862 45.5509 28.605 45.575C28.6173 45.5857 28.6273 45.5987 28.6345 45.6133C28.6417 45.6279 28.646 45.6438 28.647 45.66C32.2558 45.2551 35.676 43.8356 38.511 41.566C38.4974 41.5398 38.4902 41.5106 38.49 41.481C38.4868 41.452 38.4909 41.4226 38.5019 41.3956C38.5129 41.3685 38.5305 41.3446 38.553 41.326L38.687 41.206C38.9038 40.9634 39.0592 40.6724 39.1402 40.3572C39.2211 40.0421 39.2251 39.7121 39.152 39.3951C39.1431 39.3618 39.143 39.3269 39.1516 39.2936C39.1602 39.2603 39.1772 39.2298 39.201 39.205C39.2269 39.1831 39.2575 39.1673 39.2904 39.1588C39.3233 39.1504 39.3577 39.1494 39.391 39.156C39.7144 39.2309 40.0514 39.2251 40.372 39.1391C40.6927 39.0532 40.9874 38.8897 41.23 38.663L41.322 38.557C41.342 38.5363 41.3661 38.52 41.3928 38.5092C41.4195 38.4983 41.4482 38.4932 41.477 38.494C41.5066 38.4943 41.5357 38.5015 41.562 38.515C43.8323 35.6812 45.2497 32.2601 45.649 28.651C45.62 28.6441 45.5935 28.6296 45.572 28.609C45.5353 28.5678 45.5157 28.5142 45.517 28.459L45.519 28.458ZM26.502 42.621C23.3136 42.621 20.1967 41.6755 17.5456 39.9041C14.8946 38.1327 12.8283 35.615 11.6081 32.6693C10.388 29.7236 10.0687 26.4821 10.6908 23.355C11.3128 20.2278 12.8482 17.3553 15.1027 15.1008C17.3573 12.8462 20.2298 11.3108 23.3569 10.6888C26.4841 10.0667 29.7255 10.386 32.6712 11.6062C35.617 12.8263 38.1347 14.8926 39.9061 17.5437C41.6775 20.1948 42.623 23.3116 42.623 26.5C42.6177 30.7743 40.9173 34.872 37.8947 37.8942C34.8722 40.9163 30.7743 42.6163 26.5 42.621H26.502ZM13.402 13.401C13.3526 12.9783 13.4259 12.5503 13.613 12.168C13.1045 12.619 12.6245 13.1013 12.176 13.612C12.5548 13.423 12.9808 13.3496 13.401 13.401H13.402ZM13.402 39.601C12.9741 39.6482 12.5416 39.5725 12.155 39.383C12.6152 39.8946 13.1047 40.3791 13.621 40.834C13.4267 40.4559 13.3501 40.0282 13.401 39.606L13.402 39.601ZM39.602 39.601C39.6552 40.0269 39.5792 40.4589 39.384 40.841C39.8955 40.3832 40.38 39.8961 40.835 39.382C40.454 39.5766 40.0241 39.6545 39.599 39.606L39.602 39.601ZM45.753 25.467C45.6217 25.8743 45.3713 26.2327 45.034 26.496C45.3703 26.7617 45.6225 27.1191 45.76 27.525C45.781 27.18 45.788 26.842 45.788 26.496C45.788 26.15 45.778 25.81 45.752 25.471L45.753 25.467ZM39.39 12.167C39.5787 12.5488 39.652 12.9773 39.601 13.4C39.6896 13.386 39.7792 13.379 39.869 13.379C40.2064 13.3824 40.5387 13.462 40.841 13.612C40.383 13.1045 39.8977 12.6225 39.387 12.168L39.39 12.167Z" fill="white"/>
<path d="M38.692 26.55C38.38 26.7396 38.0301 26.8582 37.6672 26.8972C37.3042 26.9363 36.9371 26.8949 36.592 26.776C35.6382 26.1878 34.7351 25.5212 33.892 24.783C33.3969 24.4545 32.8347 24.2408 32.2464 24.1576C31.6582 24.0744 31.0587 24.1237 30.492 24.302C30.7131 24.0425 31.0018 23.8493 31.326 23.744C31.9242 23.626 32.5335 23.574 33.143 23.589C33.4257 23.5927 33.6984 23.4846 33.9016 23.2881C34.1049 23.0915 34.2222 22.8227 34.228 22.54C34.13 22.6941 33.9989 22.8245 33.8443 22.9217C33.6897 23.0189 33.5154 23.0805 33.334 23.102C32.704 23.182 31.534 22.383 30.458 22.344C31.47 21.252 32.068 21.444 33.892 20.616C34.3608 20.3568 34.7359 19.9563 34.964 19.4715C35.192 18.9868 35.2613 18.4424 35.162 17.916C35.0752 18.2705 34.9115 18.6017 34.6826 18.886C34.4536 19.1702 34.1649 19.4007 33.837 19.561C32.7461 19.8196 31.6356 19.9868 30.517 20.061C29.9343 20.1791 29.3854 20.4261 28.9104 20.7837C28.4355 21.1413 28.0465 21.6006 27.772 22.128C27.7442 21.7883 27.8114 21.4477 27.966 21.144C28.3057 20.6376 28.7 20.1701 29.142 19.75C29.3447 19.5528 29.4612 19.2834 29.4658 19.0006C29.4705 18.7179 29.3631 18.4448 29.167 18.241C29.2067 18.4194 29.2063 18.6043 29.1656 18.7825C29.125 18.9607 29.0452 19.1275 28.932 19.271C28.551 19.763 27.16 20.078 26.363 20.779C26.303 19.279 26.863 18.998 27.569 17.119C27.717 16.6045 27.6991 16.0564 27.5178 15.5526C27.3365 15.0489 27.001 14.6151 26.559 14.313C26.7486 14.6249 26.8671 14.9748 26.9062 15.3378C26.9453 15.7008 26.9039 16.0678 26.785 16.413C26.1968 17.3668 25.5301 18.2699 24.792 19.113C24.4635 19.6081 24.2498 20.1703 24.1666 20.7585C24.0834 21.3468 24.1327 21.9463 24.311 22.513C24.0517 22.2921 23.8586 22.0038 23.753 21.68C23.6343 21.0816 23.5824 20.4719 23.598 19.862C23.6017 19.5791 23.4934 19.3063 23.2967 19.103C23.1 18.8997 22.8308 18.7825 22.548 18.777C22.7022 18.8749 22.8326 19.006 22.9298 19.1606C23.027 19.3153 23.0886 19.4896 23.11 19.671C23.188 20.284 22.343 21.411 22.261 22.461C21.27 21.5 21.429 20.885 20.624 19.113C20.3648 18.6442 19.9643 18.269 19.4795 18.041C18.9948 17.813 18.4504 17.7437 17.924 17.843C18.2785 17.9298 18.6097 18.0934 18.894 18.3224C19.1782 18.5514 19.4087 18.8401 19.569 19.168C19.8275 20.2589 19.9948 21.3694 20.069 22.488C20.1868 23.0709 20.4336 23.6201 20.7913 24.0952C21.149 24.5704 21.6084 24.9595 22.136 25.234C21.7963 25.2611 21.4557 25.1936 21.152 25.039C20.6456 24.6993 20.1781 24.305 19.758 23.863C19.5608 23.6603 19.2914 23.5438 19.0086 23.5391C18.7259 23.5344 18.4528 23.6419 18.249 23.838C18.4273 23.7982 18.6123 23.7987 18.7905 23.8394C18.9686 23.88 19.1355 23.9598 19.279 24.073C19.784 24.464 19.912 25.826 20.654 26.61L20.689 26.645C20.561 26.645 20.433 26.645 20.306 26.638C19.206 26.568 18.785 26.06 17.127 25.438C16.6125 25.2899 16.0644 25.3078 15.5606 25.4892C15.0569 25.6705 14.6231 26.006 14.321 26.448C14.6329 26.2584 14.9828 26.1398 15.3458 26.1008C15.7087 26.0617 16.0758 26.1031 16.421 26.222C17.3748 26.8102 18.2779 27.4768 19.121 28.215C19.616 28.5435 20.1783 28.7572 20.7665 28.8404C21.3548 28.9236 21.9542 28.8743 22.521 28.696C22.3001 28.9557 22.0113 29.1489 21.687 29.254C21.0889 29.3727 20.4795 29.4247 19.87 29.409C19.5871 29.4052 19.3143 29.5135 19.111 29.7103C18.9077 29.907 18.7905 30.1762 18.785 30.459C18.8829 30.3048 19.0139 30.1743 19.1685 30.0771C19.3232 29.9799 19.4976 29.9184 19.679 29.897C20.31 29.817 21.295 30.808 22.368 30.846C22.319 30.893 22.268 30.94 22.219 30.985C21.388 31.716 20.734 31.65 19.119 32.385C18.6503 32.6443 18.2752 33.0448 18.0472 33.5296C17.8192 34.0143 17.7499 34.5586 17.849 35.085C17.9358 34.7304 18.0994 34.3993 18.3284 34.1151C18.5574 33.8308 18.8461 33.6003 19.174 33.44C20.2648 33.1814 21.3754 33.0142 22.494 32.94C23.0768 32.8221 23.6258 32.5753 24.1008 32.2177C24.5758 31.86 24.9647 31.4005 25.239 30.873C25.2668 31.2126 25.1996 31.5533 25.045 31.857C24.7053 32.3634 24.3109 32.8309 23.869 33.251C23.6663 33.4482 23.5498 33.7176 23.5451 34.0003C23.5404 34.2831 23.6479 34.5562 23.844 34.76C23.8042 34.5816 23.8047 34.3967 23.8454 34.2185C23.886 34.0403 23.9658 33.8735 24.079 33.73C24.459 33.238 25.854 33.013 26.651 32.315C26.684 33.732 26.133 34.043 25.443 35.882C25.2948 36.3965 25.3126 36.9446 25.4939 37.4484C25.6753 37.9522 26.0109 38.386 26.453 38.688C26.2634 38.376 26.1448 38.0262 26.1058 37.6632C26.0667 37.3003 26.1081 36.9331 26.227 36.588C26.815 35.6341 27.4817 34.731 28.22 33.888C28.5484 33.3929 28.7619 32.8307 28.8452 32.2424C28.9284 31.6542 28.8791 31.0548 28.701 30.488C28.9605 30.7091 29.1537 30.9978 29.259 31.322C29.3777 31.9201 29.4296 32.5295 29.414 33.139C29.4102 33.4219 29.5185 33.6947 29.7153 33.898C29.912 34.1013 30.1812 34.2185 30.464 34.224C30.3098 34.1261 30.1794 33.995 30.0822 33.8404C29.985 33.6857 29.9234 33.5114 29.902 33.33C29.826 32.73 30.621 31.571 30.742 30.537C31.742 31.501 31.578 32.115 32.384 33.889C32.6432 34.3578 33.0437 34.7329 33.5284 34.961C34.0132 35.189 34.5576 35.2583 35.084 35.159C34.7294 35.0722 34.3983 34.9085 34.114 34.6796C33.8298 34.4506 33.5993 34.1619 33.439 33.834C33.1805 32.7428 33.0132 31.632 32.939 30.513C32.8211 29.9302 32.5743 29.3812 32.2166 28.9062C31.859 28.4312 31.3995 28.0423 30.872 27.768C31.2116 27.7402 31.5523 27.8074 31.856 27.962C32.3624 28.3017 32.8299 28.696 33.25 29.138C33.4472 29.3407 33.7166 29.4572 33.9993 29.4619C34.2821 29.4665 34.5552 29.3591 34.759 29.163C34.5806 29.2026 34.3957 29.202 34.2175 29.1614C34.0394 29.1208 33.8725 29.041 33.729 28.928C33.224 28.537 33.096 27.269 32.354 26.485C32.3111 26.4407 32.2661 26.3987 32.219 26.359C32.3799 26.3501 32.5411 26.3501 32.702 26.359C33.802 26.429 34.223 26.938 35.881 27.559C36.3955 27.7072 36.9436 27.6894 37.4474 27.5081C37.9512 27.3267 38.385 26.9911 38.687 26.549L38.692 26.55ZM26.5 30.45C25.7182 30.4498 24.954 30.2178 24.3041 29.7833C23.6542 29.3488 23.1476 28.7314 22.8486 28.0091C22.5496 27.2867 22.4714 26.4919 22.6241 25.7252C22.7767 24.9584 23.1533 24.2542 23.7061 23.7014C24.259 23.1487 24.9634 22.7723 25.7302 22.6199C26.4969 22.4674 27.2917 22.5458 28.014 22.845C28.7362 23.1442 29.3535 23.6509 29.7879 24.3009C30.2222 24.951 30.454 25.7152 30.454 26.497C30.4545 27.0165 30.3526 27.5311 30.1541 28.0112C29.9556 28.4913 29.6645 28.9276 29.2972 29.2951C28.93 29.6626 28.4939 29.9541 28.014 30.153C27.534 30.3518 27.0195 30.4541 26.5 30.454V30.45Z" fill="white"/>
<path d="M26.501 28.114C27.3918 28.114 28.114 27.3918 28.114 26.501C28.114 25.6102 27.3918 24.888 26.501 24.888C25.6102 24.888 24.888 25.6102 24.888 26.501C24.888 27.3918 25.6102 28.114 26.501 28.114Z" fill="#5B5776"/>
<path d="M28.227 7.088C27.8944 7.11252 27.5702 7.2038 27.2736 7.35637C26.9771 7.50894 26.7143 7.71966 26.501 7.976C26.2893 7.71952 26.0279 7.5086 25.7324 7.35597C25.437 7.20335 25.1136 7.1122 24.782 7.088C24.8395 6.91555 24.9063 6.74632 24.982 6.58101C25.4333 5.61345 25.6574 4.55545 25.637 3.48799C25.6371 3.44223 25.6224 3.39767 25.595 3.36101C25.2841 2.94991 25.1204 2.44632 25.13 1.93102C25.1299 1.60818 25.1896 1.28812 25.306 0.987017C25.3147 0.977411 25.3197 0.964983 25.32 0.952013C25.3785 0.681035 25.5287 0.438514 25.7452 0.265368C25.9617 0.0922212 26.2313 -0.000954177 26.5085 0.00151259C26.7857 0.00397937 27.0537 0.101946 27.267 0.278917C27.4804 0.455889 27.6263 0.701032 27.68 0.973009C27.684 0.97666 27.6864 0.98165 27.687 0.987017C27.8068 1.28716 27.8666 1.60787 27.863 1.93102C27.8746 2.4455 27.7133 2.949 27.405 3.36101C27.3776 3.39767 27.3628 3.44223 27.363 3.48799C27.3426 4.55545 27.5666 5.61345 28.018 6.58101C28.0991 6.74505 28.169 6.91443 28.227 7.088Z" fill="white"/>
<path d="M45.489 8.99405C45.475 9.04305 45.461 9.09405 45.44 9.17005C45.433 9.17005 45.412 9.23303 45.412 9.23303C45.4083 9.24962 45.4036 9.26599 45.398 9.28204C45.391 9.28904 45.391 9.29604 45.384 9.30304C45.2597 9.60211 45.0779 9.87392 44.849 10.1031C44.49 10.4718 44.0193 10.7119 43.51 10.786C43.4634 10.793 43.4196 10.8123 43.383 10.842C42.6182 11.5846 42.0306 12.49 41.664 13.491C41.6034 13.665 41.5305 13.8344 41.446 13.998C41.0037 13.6224 40.4479 13.4065 39.868 13.385C39.7783 13.385 39.6887 13.392 39.6 13.406C39.631 13.0759 39.5952 12.743 39.4947 12.427C39.3942 12.111 39.2311 11.8186 39.015 11.567C39.1748 11.4795 39.3422 11.4066 39.515 11.349C40.5176 10.9823 41.4235 10.3921 42.164 9.62305C42.1997 9.59265 42.2223 9.54967 42.227 9.50305C42.3012 8.99373 42.5412 8.52306 42.91 8.16403C43.1367 7.93728 43.4045 7.75571 43.699 7.62903C43.7116 7.62359 43.7233 7.61654 43.734 7.60803C43.9731 7.48387 44.2432 7.43239 44.5112 7.45993C44.7792 7.48747 45.0332 7.59283 45.242 7.76303C45.3845 7.93025 45.482 8.13108 45.5253 8.3465C45.5685 8.56191 45.556 8.7848 45.489 8.99405Z" fill="white"/>
<path d="M53.007 26.5C52.9806 26.7705 52.8749 27.0271 52.7032 27.2377C52.5316 27.4484 52.3015 27.6036 52.042 27.6841C52.035 27.6841 52.021 27.691 52.014 27.691C51.6267 27.8424 51.208 27.8959 50.7951 27.8467C50.3822 27.7975 49.9879 27.6472 49.647 27.4091C49.6289 27.393 49.6076 27.3809 49.5845 27.3737C49.5614 27.3664 49.537 27.3642 49.513 27.367C48.4477 27.3463 47.392 27.5704 46.427 28.022C46.2627 28.1001 46.0933 28.1669 45.92 28.222C45.8963 27.8893 45.8053 27.5648 45.6527 27.2681C45.5001 26.9715 45.2889 26.7088 45.032 26.496C45.2878 26.2838 45.4983 26.0222 45.6508 25.7269C45.8034 25.4315 45.8949 25.1085 45.92 24.777C46.0929 24.8334 46.2622 24.9002 46.427 24.9771C47.3945 25.4284 48.4525 25.6524 49.52 25.632C49.5652 25.6289 49.6088 25.6144 49.647 25.5901C49.9879 25.3522 50.3819 25.2015 50.7945 25.1512C51.2072 25.1008 51.6258 25.1523 52.014 25.3011C52.028 25.3081 52.035 25.308 52.049 25.315C52.3085 25.3947 52.5384 25.55 52.709 25.7612C52.8797 25.9723 52.9835 26.2296 53.007 26.5Z" fill="white"/>
<path d="M45.243 45.236C45.0835 45.3778 44.8901 45.4763 44.6816 45.522C44.4731 45.5677 44.2563 45.5591 44.052 45.497L43.996 45.483C43.954 45.476 43.918 45.462 43.876 45.455L43.763 45.413L43.686 45.596L43.7 45.385C43.4028 45.2597 43.1343 45.0749 42.911 44.842C42.5388 44.4845 42.2957 44.0136 42.22 43.503C42.2197 43.4802 42.2146 43.4577 42.2049 43.437C42.1953 43.4163 42.1813 43.3979 42.164 43.383C41.4233 42.6162 40.5168 42.0292 39.514 41.667C39.3429 41.6052 39.1759 41.5324 39.014 41.449C39.231 41.1981 39.3947 40.9057 39.4952 40.5895C39.5958 40.2734 39.6311 39.9402 39.599 39.61C39.9313 39.6399 40.2662 39.6021 40.5835 39.499C40.9007 39.3958 41.1938 39.2295 41.445 39.01C41.523 39.158 41.586 39.327 41.663 39.517C42.0263 40.5197 42.6143 41.4258 43.382 42.166C43.4162 42.2005 43.4609 42.2227 43.509 42.229C44.0168 42.3018 44.4856 42.5422 44.841 42.912C45.068 43.1402 45.2519 43.4075 45.384 43.701C45.384 43.715 45.391 43.722 45.398 43.736C45.524 43.9732 45.5765 44.2425 45.5489 44.5096C45.5213 44.7767 45.4148 45.0296 45.243 45.236Z" fill="white"/>
<path d="M28.015 46.426C27.5669 47.3921 27.3429 48.4471 27.36 49.512C27.359 49.5354 27.3628 49.5587 27.3712 49.5806C27.3797 49.6025 27.3925 49.6223 27.409 49.639C27.7133 50.0557 27.8741 50.56 27.867 51.076C27.8666 51.3965 27.8069 51.7142 27.691 52.013C27.684 52.027 27.684 52.034 27.677 52.048C27.5991 52.3051 27.446 52.533 27.2375 52.7025C27.029 52.872 26.7746 52.9752 26.507 52.999C26.2306 52.9758 25.9677 52.8691 25.7534 52.693C25.539 52.5168 25.3834 52.2797 25.307 52.013C25.1912 51.7142 25.1315 51.3965 25.131 51.076C25.1239 50.56 25.2847 50.0557 25.589 49.639C25.6055 49.6223 25.6183 49.6025 25.6268 49.5806C25.6352 49.5587 25.639 49.5354 25.638 49.512C25.6575 48.4461 25.4309 47.3901 24.976 46.426C24.9 46.2608 24.8332 46.0916 24.776 45.919C25.1072 45.893 25.4299 45.801 25.7251 45.6485C26.0203 45.496 26.2821 45.2861 26.495 45.031C26.7074 45.2867 26.969 45.4971 27.2643 45.6496C27.5596 45.8022 27.8826 45.8938 28.214 45.919C28.1567 46.0914 28.0903 46.2607 28.015 46.426Z" fill="white"/>
<path d="M13.994 41.445C13.829 41.5266 13.6598 41.5994 13.487 41.663C12.4844 42.0262 11.5782 42.6143 10.838 43.382C10.8206 43.3983 10.8066 43.4179 10.797 43.4398C10.7873 43.4616 10.7823 43.4851 10.782 43.509C10.7065 44.0174 10.4637 44.486 10.092 44.841C9.86815 45.07 9.60276 45.2542 9.31001 45.384C9.29601 45.391 9.28201 45.391 9.27501 45.398C9.03647 45.5241 8.76591 45.5767 8.49751 45.5491C8.22911 45.5215 7.97491 45.415 7.76701 45.243C7.60924 45.0737 7.50822 44.8594 7.47801 44.63C7.47101 44.588 7.47102 44.545 7.46402 44.461C7.46191 44.3857 7.46658 44.3104 7.47801 44.236L7.27802 44.215L7.47801 44.18L7.49202 44.08C7.49902 44.045 7.51302 44.01 7.52002 43.974L7.54102 43.889C7.66493 43.5187 7.87502 43.1832 8.15401 42.91C8.51021 42.5374 8.98226 42.2966 9.49301 42.227C9.53963 42.2222 9.58261 42.1997 9.61301 42.164C10.3833 41.4259 10.9717 40.5191 11.332 39.515C11.41 39.325 11.473 39.163 11.55 39.015C11.8035 39.2306 12.097 39.3939 12.4139 39.4955C12.7307 39.5971 13.0645 39.635 13.396 39.607C13.3661 39.9379 13.4037 40.2714 13.5065 40.5873C13.6093 40.9033 13.7752 41.195 13.994 41.445Z" fill="white"/>
<path d="M7.96901 26.5C7.71382 26.7123 7.50422 26.9741 7.35282 27.2695C7.20142 27.5649 7.11134 27.8879 7.08802 28.219C6.91349 28.1673 6.74383 28.1004 6.58101 28.019C5.61346 27.5677 4.55547 27.3436 3.48801 27.364C3.44211 27.363 3.39727 27.3778 3.36101 27.406C3.01933 27.6423 2.62506 27.7916 2.21251 27.8408C1.79997 27.8899 1.38166 27.8375 0.994009 27.688C0.980009 27.688 0.97302 27.681 0.95902 27.681C0.687284 27.6235 0.443642 27.4741 0.269079 27.2581C0.0945153 27.042 -0.000327858 26.7724 0.000493572 26.4947C0.001315 26.2169 0.0977571 25.9479 0.273595 25.7329C0.449434 25.5179 0.693937 25.37 0.966009 25.314C0.969809 25.3145 0.97367 25.3141 0.9773 25.3129C0.98093 25.3117 0.98425 25.3096 0.98702 25.307C1.37645 25.1579 1.79643 25.1062 2.21039 25.1566C2.62435 25.207 3.01972 25.3578 3.36202 25.596C3.37937 25.611 3.39952 25.6225 3.42132 25.6297C3.44311 25.6369 3.46613 25.6397 3.48902 25.638C4.55614 25.6549 5.61334 25.431 6.58201 24.983C6.74629 24.905 6.91569 24.8382 7.08901 24.783C7.11161 25.1139 7.20129 25.4368 7.35257 25.7319C7.50386 26.0271 7.71358 26.2884 7.96901 26.5Z" fill="white"/>
<path d="M13.402 13.402C13.0702 13.3704 12.7354 13.4063 12.4178 13.5075C12.1002 13.6088 11.8064 13.7732 11.554 13.991C11.4724 13.826 11.3996 13.6568 11.336 13.484C10.974 12.4807 10.3858 11.5743 9.61701 10.835C9.58595 10.8013 9.54282 10.7811 9.497 10.779C8.98707 10.7021 8.51659 10.4597 8.15801 10.089C7.92972 9.8636 7.74794 9.59552 7.62301 9.30002C7.61601 9.29302 7.60901 9.27903 7.60201 9.27203C7.47759 9.03305 7.42596 8.7628 7.45351 8.49478C7.48106 8.22676 7.58658 7.97269 7.75701 7.76401C7.92478 7.61927 8.12717 7.52046 8.34447 7.47717C8.56178 7.43389 8.78658 7.44762 8.997 7.51703C9.05471 7.52816 9.11129 7.54454 9.16601 7.56601C9.19083 7.57106 9.21455 7.58056 9.23601 7.59402C9.25701 7.60102 9.27801 7.60802 9.30601 7.61502C9.5995 7.74714 9.86677 7.93108 10.095 8.15802C10.4638 8.51705 10.7039 8.98769 10.778 9.49701C10.7843 9.54516 10.8065 9.58985 10.841 9.62402C11.5798 10.3901 12.4833 10.9779 13.483 11.343C13.6545 11.4014 13.8216 11.4719 13.983 11.554C13.769 11.8085 13.6075 12.1028 13.5078 12.42C13.4081 12.7371 13.3722 13.0709 13.402 13.402Z" fill="white"/>
</svg>
