<svg xmlns="http://www.w3.org/2000/svg" width="244.107" height="53" viewBox="0 0 244.107 53">
  <g id="Group_68" data-name="Group 68" transform="translate(-173.32 -276.98)">
    <g id="Group_15" data-name="Group 15" transform="translate(349.501 289.58)">
      <path id="Path_34" data-name="Path 34" d="M423.362,319.6V297.3a2.435,2.435,0,0,1,2.435-2.436h.155a2.436,2.436,0,0,1,2.436,2.436v17.427a2.436,2.436,0,0,0,2.436,2.436h4.744A2.435,2.435,0,0,1,438,319.6h0a2.435,2.435,0,0,1-2.435,2.436H425.8A2.435,2.435,0,0,1,423.362,319.6Z" transform="translate(-423.362 -294.862)" fill="#5b5776"/>
    </g>
    <path id="Path_35" data-name="Path 35" d="M261.156,319.386V296.852a2.318,2.318,0,0,1,2.318-2.317h9.4a10.915,10.915,0,0,1,5.24,1.058,6.28,6.28,0,0,1,2.737,2.736,7.93,7.93,0,0,1,.815,3.5,7,7,0,0,1-.8,3.328,4.606,4.606,0,0,1-.467.717,2.33,2.33,0,0,0,.283,3.086l.019.02a6.229,6.229,0,0,1,1.417,2.212,7.144,7.144,0,0,1,.456,2.494,9,9,0,0,1-.476,2.863,7.16,7.16,0,0,1-1.542,2.59,7.519,7.519,0,0,1-2.824,1.864,11.721,11.721,0,0,1-4.318.7h-9.947A2.318,2.318,0,0,1,261.156,319.386Zm5.027-16.244a2.318,2.318,0,0,0,2.317,2.318h3.756a5.115,5.115,0,0,0,3.27-.864,2.816,2.816,0,0,0,1.058-2.3,4.006,4.006,0,0,0-.271-1.446,2.369,2.369,0,0,0-1.048-1.175,4.524,4.524,0,0,0-2.29-.466H268.5a2.318,2.318,0,0,0-2.317,2.318Zm0,11.528a2.317,2.317,0,0,0,2.317,2.317h5.251a4.372,4.372,0,0,0,2.281-.5,2.842,2.842,0,0,0,1.164-1.272,3.74,3.74,0,0,0,.34-1.523,4.121,4.121,0,0,0-.4-1.776,3.079,3.079,0,0,0-1.456-1.387,6.856,6.856,0,0,0-3.057-.544H268.5a2.318,2.318,0,0,0-2.317,2.318Z" transform="translate(-25.946 -5.186)" fill="#0a004d"/>
    <path id="Path_36" data-name="Path 36" d="M295.442,320.151V296.921a1.562,1.562,0,0,1,.909-1.418l1.729-.8a1.561,1.561,0,0,1,2.214,1.418v4.493a1.57,1.57,0,0,0,2.253,1.4l.027-.012a7.394,7.394,0,0,1,3.038-.592,7.122,7.122,0,0,1,3.832.96,5.927,5.927,0,0,1,2.32,2.737,10.544,10.544,0,0,1,.776,4.24v10.8a1.561,1.561,0,0,1-1.561,1.561h-1.709a1.561,1.561,0,0,1-1.561-1.561v-9.306a6.348,6.348,0,0,0-.834-3.629,3.091,3.091,0,0,0-2.717-1.184,3.546,3.546,0,0,0-2.921,1.155,5.613,5.613,0,0,0-.941,3.58v9.384a1.561,1.561,0,0,1-1.561,1.561H297A1.561,1.561,0,0,1,295.442,320.151Z" transform="translate(-36.074 -5.194)" fill="#0a004d"/>
    <path id="Path_37" data-name="Path 37" d="M338.423,306.175q-1.976-1.892-5.975-1.9a14.969,14.969,0,0,0-4.228.613c-.5.148-.982.314-1.447.5a1.343,1.343,0,0,0-.85,1.24v3.675a.25.25,0,0,0,.211-.028,13.637,13.637,0,0,1,2.84-1.381,9.112,9.112,0,0,1,2.988-.521,4.053,4.053,0,0,1,2.769.838,3.208,3.208,0,0,1,.937,2.515v1.24a8.821,8.821,0,0,0-2.121-.683,12.8,12.8,0,0,0-2.515-.247,9.824,9.824,0,0,0-4.108.8,6.465,6.465,0,0,0-2.734,2.276,5.958,5.958,0,0,0-.979,3.4,6.178,6.178,0,0,0,1.9,4.763,7.242,7.242,0,0,0,5.13,1.762,8.46,8.46,0,0,0,3.037-.528,6.648,6.648,0,0,0,2.4-1.529h0a1.59,1.59,0,0,0,1.585,1.585h1.571A1.578,1.578,0,0,0,340.4,323V311.812A7.431,7.431,0,0,0,338.423,306.175Zm-2.755,12.838a.277.277,0,0,1-.077.2,6.365,6.365,0,0,1-2.966,1.616,5.075,5.075,0,0,1-.763.109,4.77,4.77,0,0,1-3.042-.626,2.055,2.055,0,0,1-.909-1.783,2.167,2.167,0,0,1,1.036-1.909,5.1,5.1,0,0,1,2.84-.691,9.477,9.477,0,0,1,2.029.225q.378.081.731.188a1.586,1.586,0,0,1,1.122,1.521Z" transform="translate(-44.277 -8.064)" fill="#0a004d"/>
    <path id="Path_38" data-name="Path 38" d="M384.772,306.175q-1.976-1.892-5.975-1.9a14.969,14.969,0,0,0-4.228.613c-.5.148-.981.314-1.448.5a1.342,1.342,0,0,0-.849,1.24v3.675a.25.25,0,0,0,.211-.028,13.639,13.639,0,0,1,2.84-1.381,9.112,9.112,0,0,1,2.988-.521,4.053,4.053,0,0,1,2.769.838,3.208,3.208,0,0,1,.937,2.515v1.24a8.82,8.82,0,0,0-2.121-.683,12.8,12.8,0,0,0-2.515-.247,9.824,9.824,0,0,0-4.108.8,6.465,6.465,0,0,0-2.734,2.276,5.958,5.958,0,0,0-.979,3.4,6.178,6.178,0,0,0,1.9,4.763,7.242,7.242,0,0,0,5.13,1.762,8.459,8.459,0,0,0,3.037-.528,6.647,6.647,0,0,0,2.4-1.529h0a1.59,1.59,0,0,0,1.585,1.585h1.571A1.578,1.578,0,0,0,386.752,323V311.812A7.431,7.431,0,0,0,384.772,306.175Zm-2.755,12.838a.277.277,0,0,1-.077.2,6.372,6.372,0,0,1-2.966,1.616,5.069,5.069,0,0,1-.764.109,4.769,4.769,0,0,1-3.041-.626,2.055,2.055,0,0,1-.909-1.783,2.167,2.167,0,0,1,1.036-1.909,5.1,5.1,0,0,1,2.84-.691,9.477,9.477,0,0,1,2.029.225q.378.081.731.188a1.586,1.586,0,0,1,1.122,1.521Z" transform="translate(-57.968 -8.064)" fill="#0a004d"/>
    <path id="Path_39" data-name="Path 39" d="M462.242,306.175q-1.976-1.892-5.975-1.9a14.968,14.968,0,0,0-4.228.613c-.5.148-.982.314-1.448.5a1.342,1.342,0,0,0-.849,1.24v3.675a.249.249,0,0,0,.211-.028,13.638,13.638,0,0,1,2.84-1.381,9.112,9.112,0,0,1,2.988-.521,4.053,4.053,0,0,1,2.769.838,3.208,3.208,0,0,1,.937,2.515v1.24a8.82,8.82,0,0,0-2.121-.683,12.8,12.8,0,0,0-2.515-.247,9.823,9.823,0,0,0-4.108.8,6.465,6.465,0,0,0-2.734,2.276,5.957,5.957,0,0,0-.979,3.4,6.178,6.178,0,0,0,1.9,4.763,7.242,7.242,0,0,0,5.13,1.762,8.459,8.459,0,0,0,3.037-.528,6.647,6.647,0,0,0,2.4-1.529h0a1.59,1.59,0,0,0,1.585,1.585h1.571A1.578,1.578,0,0,0,464.222,323V311.812A7.431,7.431,0,0,0,462.242,306.175Zm-2.755,12.838a.277.277,0,0,1-.077.2,6.372,6.372,0,0,1-2.966,1.616,5.069,5.069,0,0,1-.764.109,4.769,4.769,0,0,1-3.041-.626,2.055,2.055,0,0,1-.909-1.783,2.167,2.167,0,0,1,1.036-1.909,5.1,5.1,0,0,1,2.84-.691,9.477,9.477,0,0,1,2.029.225c.252.054.5.117.731.188a1.586,1.586,0,0,1,1.122,1.521Z" transform="translate(-80.852 -8.064)" fill="#5b5776"/>
    <path id="Path_40" data-name="Path 40" d="M351.345,323.25V306.085a1.334,1.334,0,0,1,1.334-1.334h2.184a1.334,1.334,0,0,1,1.334,1.334v.8a4.425,4.425,0,0,1,1.708-1.873,4.541,4.541,0,0,1,2.445-.728,4.872,4.872,0,0,1,2.942.917,1.326,1.326,0,0,1,.517,1.274l-.268,1.755a1.35,1.35,0,0,1-1.836,1.027l-.015-.006a4.928,4.928,0,0,0-1.669-.271,3.653,3.653,0,0,0-2.057.563,3.566,3.566,0,0,0-1.309,1.63,6.5,6.5,0,0,0-.457,2.562v9.514a1.334,1.334,0,0,1-1.334,1.334H352.68A1.334,1.334,0,0,1,351.345,323.25Z" transform="translate(-52.588 -8.066)" fill="#0a004d"/>
    <path id="Path_41" data-name="Path 41" d="M405.161,322.168a4.566,4.566,0,0,1-3.552-1.3,5.6,5.6,0,0,1-1.184-3.882v-9.422a1.445,1.445,0,0,0-1.446-1.445h0a1.446,1.446,0,0,1-1.445-1.446v-1.358a1.445,1.445,0,0,1,1.445-1.446h0a1.446,1.446,0,0,0,1.446-1.446V296.9a1.446,1.446,0,0,1,.82-1.3l1.921-.922a1.446,1.446,0,0,1,2.072,1.3v4.447a1.446,1.446,0,0,0,1.445,1.446h1.611a1.446,1.446,0,0,1,1.446,1.446v1.358a1.446,1.446,0,0,1-1.446,1.446h-1.611a1.445,1.445,0,0,0-1.445,1.445v8.549a2.1,2.1,0,0,0,.378,1.378,1.482,1.482,0,0,0,1.194.446,5.211,5.211,0,0,0,1.057-.113,1.454,1.454,0,0,1,1.771,1.594l-.139,1.041a1.432,1.432,0,0,1-.916,1.163,8.431,8.431,0,0,1-1.133.323A11.014,11.014,0,0,1,405.161,322.168Z" transform="translate(-66.232 -5.184)" fill="#0a004d"/>
    <path id="Path_42" data-name="Path 42" d="M479.845,323.948l-4.858-17.605a1.114,1.114,0,0,1,1.074-1.411H478.5a1.114,1.114,0,0,1,1.083.852l2.2,9.065q.136.524.282,1.272t.242,1.387q.135-.622.31-1.378t.311-1.281l2.438-9.091a1.114,1.114,0,0,1,1.076-.826h2.52a1.114,1.114,0,0,1,1.077.828l2.419,9.089c.089.363.2.8.319,1.3s.225.964.3,1.378q.116-.641.252-1.378t.272-1.3l2.255-9.071a1.114,1.114,0,0,1,1.082-.846h2.435a1.114,1.114,0,0,1,1.073,1.413l-4.909,17.605a1.115,1.115,0,0,1-1.074.815h-2.583a1.114,1.114,0,0,1-1.078-.832l-2.382-9.085q-.136-.542-.349-1.436t-.369-1.591q-.136.7-.349,1.591T487,314.849l-2.4,9.087a1.114,1.114,0,0,1-1.077.83h-2.6A1.114,1.114,0,0,1,479.845,323.948Z" transform="translate(-89.099 -8.257)" fill="#5b5776"/>
    <g id="Group_16" data-name="Group 16" transform="translate(410.335 311.933)">
      <path id="Path_43" data-name="Path 43" d="M510.815,331.162v-3.477a.325.325,0,0,0-.325-.325h-.79v-.774h2.981v.774h-.786a.324.324,0,0,0-.325.325v3.477Z" transform="translate(-509.7 -326.586)" fill="#5b5776"/>
      <path id="Path_44" data-name="Path 44" d="M514.613,331.162v-4.253a.323.323,0,0,1,.323-.323h.55a.324.324,0,0,1,.316.254l.626,2.871.622-2.87a.324.324,0,0,1,.316-.255h.554a.323.323,0,0,1,.323.323v4.253h-.705v-3.605l-.748,3.605h-.729l-.743-3.605v3.605Z" transform="translate(-511.151 -326.586)" fill="#5b5776"/>
    </g>
    <g id="Group_19" data-name="Group 19" transform="translate(173.32 276.98)">
      <g id="Group_17" data-name="Group 17" transform="translate(7.222 7.222)">
        <path id="Path_45" data-name="Path 45" d="M204.326,292.228a15.757,15.757,0,1,0,15.757,15.758A15.775,15.775,0,0,0,204.326,292.228Zm0,30.54A14.772,14.772,0,1,1,219.1,307.994,14.779,14.779,0,0,1,204.323,322.768Z" transform="translate(-185.046 -288.706)" fill="#0a004d"/>
        <path id="Path_46" data-name="Path 46" d="M202.848,287.23c-.345,0-.683.007-1.029.028a2.2,2.2,0,0,1,1.029.726,2.189,2.189,0,0,1,1.036-.726C203.539,287.237,203.193,287.23,202.848,287.23Zm0,37.809a2.27,2.27,0,0,1-1.029.726c.345.021.683.028,1.029.028s.691-.007,1.029-.035A2.171,2.171,0,0,1,202.848,325.039ZM183.6,305.486c-.021.338-.028.676-.028,1.022s.007.676.028,1.015a2.215,2.215,0,0,1,.719-1.015A2.15,2.15,0,0,1,183.6,305.486Zm38.267,2.98.014-.183a2.016,2.016,0,0,0-.951-1.607.194.194,0,0,1,0-.338,2.027,2.027,0,0,0,.951-1.642l-.014-.141a.223.223,0,0,1,.063-.162.117.117,0,0,1,.085-.035,19.068,19.068,0,0,0-4.094-9.864.188.188,0,0,1-.085.021h-.007a.192.192,0,0,1-.148-.063l-.127-.141a2.014,2.014,0,0,0-1.8-.465.193.193,0,0,1-.19-.049.189.189,0,0,1-.049-.19,2.046,2.046,0,0,0-.486-1.832l-.113-.092a.193.193,0,0,1-.063-.155.188.188,0,0,1,.021-.085A19.084,19.084,0,0,0,205,287.357a.168.168,0,0,1-.042.077.253.253,0,0,1-.155.063l-.183-.014a1.992,1.992,0,0,0-1.6.951.209.209,0,0,1-.176.1.19.19,0,0,1-.169-.1,2.027,2.027,0,0,0-1.642-.951l-.141.014a.235.235,0,0,1-.162-.063.13.13,0,0,1-.035-.085,19.092,19.092,0,0,0-9.872,4.094.4.4,0,0,1,.028.085.226.226,0,0,1-.07.155l-.134.12a1.993,1.993,0,0,0-.458,1.8.209.209,0,0,1-.056.19.189.189,0,0,1-.19.049,2.031,2.031,0,0,0-1.832.493l-.092.113a.2.2,0,0,1-.148.063h-.007a.2.2,0,0,1-.092-.021,19.143,19.143,0,0,0-4.087,9.864.426.426,0,0,1,.085.035.223.223,0,0,1,.063.162l-.014.176a2.016,2.016,0,0,0,.951,1.607.2.2,0,0,1,0,.338,2.029,2.029,0,0,0-.951,1.628l.014.162a.218.218,0,0,1-.063.155.237.237,0,0,1-.085.042,19.262,19.262,0,0,0,4.087,9.864.2.2,0,0,1,.092-.021.184.184,0,0,1,.155.063l.12.134a1.993,1.993,0,0,0,1.8.465.226.226,0,0,1,.19.049.22.22,0,0,1,.056.19,2.02,2.02,0,0,0,.486,1.839l.106.092a.2.2,0,0,1,.07.155.4.4,0,0,1-.028.085,19.152,19.152,0,0,0,9.864,4.094.123.123,0,0,1,.042-.085.158.158,0,0,1,.155-.063l.183.007a2.016,2.016,0,0,0,1.607-.951.2.2,0,0,1,.338,0,2.027,2.027,0,0,0,1.621.951l.162-.007a.169.169,0,0,1,.162.063.123.123,0,0,1,.042.085,19.211,19.211,0,0,0,9.864-4.094.188.188,0,0,1-.021-.085.176.176,0,0,1,.063-.155l.134-.12a2.032,2.032,0,0,0,.465-1.811.2.2,0,0,1,.049-.19.226.226,0,0,1,.19-.049,2.025,2.025,0,0,0,1.839-.493l.092-.106a.207.207,0,0,1,.155-.063.188.188,0,0,1,.085.021,19.143,19.143,0,0,0,4.087-9.864.167.167,0,0,1-.077-.042A.218.218,0,0,1,221.865,308.467Zm-19.017,14.163a16.121,16.121,0,1,1,16.121-16.121A16.141,16.141,0,0,1,202.848,322.629Zm-13.1-29.22a2.219,2.219,0,0,1,.211-1.233,16.36,16.36,0,0,0-1.437,1.444A2.157,2.157,0,0,1,189.749,293.409Zm0,26.2a2.269,2.269,0,0,1-1.247-.218,17.8,17.8,0,0,0,1.466,1.451A2.129,2.129,0,0,1,189.749,319.614Zm26.2,0a2.142,2.142,0,0,1-.218,1.24,17.73,17.73,0,0,0,1.451-1.459A2.176,2.176,0,0,1,215.947,319.614Zm6.151-14.134a2.137,2.137,0,0,1-.719,1.029,2.218,2.218,0,0,1,.726,1.029c.021-.345.028-.683.028-1.029S222.126,305.818,222.1,305.479Zm-6.363-13.3a2.191,2.191,0,0,1,.211,1.233,1.713,1.713,0,0,1,.268-.021,2.237,2.237,0,0,1,.972.233A18.721,18.721,0,0,0,215.735,292.176Z" transform="translate(-183.57 -287.23)" fill="#0a004d"/>
      </g>
      <path id="Path_50" data-name="Path 50" d="M218.011,309.529a2.485,2.485,0,0,1-2.1.226,20.173,20.173,0,0,1-2.7-1.993,3.986,3.986,0,0,0-3.4-.481,1.844,1.844,0,0,1,.834-.558,8.333,8.333,0,0,1,1.817-.155,1.071,1.071,0,0,0,1.085-1.049v0a1.231,1.231,0,0,1-.894.562c-.63.08-1.8-.719-2.876-.758h0c1.012-1.092,1.61-.9,3.434-1.728a2.546,2.546,0,0,0,1.27-2.7h0a2.49,2.49,0,0,1-1.325,1.645,20.183,20.183,0,0,1-3.32.5,3.988,3.988,0,0,0-2.745,2.067,1.838,1.838,0,0,1,.194-.984,8.31,8.31,0,0,1,1.176-1.394,1.07,1.07,0,0,0,.025-1.509v0a1.231,1.231,0,0,1-.235,1.03c-.381.492-1.772.807-2.569,1.508-.06-1.5.5-1.781,1.206-3.66a2.546,2.546,0,0,0-1.01-2.806h0a2.485,2.485,0,0,1,.226,2.1,20.174,20.174,0,0,1-1.993,2.7,3.986,3.986,0,0,0-.481,3.4,1.846,1.846,0,0,1-.558-.833,8.26,8.26,0,0,1-.155-1.818,1.071,1.071,0,0,0-1.05-1.085h0a1.23,1.23,0,0,1,.562.894c.078.613-.767,1.74-.849,2.79-.991-.961-.832-1.576-1.637-3.348a2.546,2.546,0,0,0-2.7-1.27h0a2.49,2.49,0,0,1,1.645,1.325,20.194,20.194,0,0,1,.5,3.32,3.986,3.986,0,0,0,2.067,2.746,1.846,1.846,0,0,1-.984-.195,8.31,8.31,0,0,1-1.394-1.176,1.07,1.07,0,0,0-1.509-.025h0a1.231,1.231,0,0,1,1.03.235c.505.391.633,1.753,1.375,2.537l.035.035c-.128,0-.256,0-.383-.007-1.1-.07-1.521-.578-3.179-1.2a2.546,2.546,0,0,0-2.806,1.01h0a2.485,2.485,0,0,1,2.1-.226,20.169,20.169,0,0,1,2.7,1.993,3.986,3.986,0,0,0,3.4.481,1.839,1.839,0,0,1-.834.558,8.242,8.242,0,0,1-1.817.155,1.071,1.071,0,0,0-1.085,1.05v0a1.229,1.229,0,0,1,.894-.562c.631-.08,1.616.911,2.689.949-.049.047-.1.094-.149.139-.831.731-1.485.665-3.1,1.4a2.547,2.547,0,0,0-1.27,2.7h0a2.49,2.49,0,0,1,1.325-1.645,20.189,20.189,0,0,1,3.32-.5,3.984,3.984,0,0,0,2.745-2.067,1.838,1.838,0,0,1-.194.984,8.31,8.31,0,0,1-1.176,1.394,1.07,1.07,0,0,0-.025,1.509v0a1.231,1.231,0,0,1,.235-1.03c.38-.492,1.775-.717,2.572-1.415.033,1.417-.518,1.728-1.208,3.567a2.545,2.545,0,0,0,1.01,2.806h0a2.485,2.485,0,0,1-.226-2.1,20.131,20.131,0,0,1,1.993-2.7,3.988,3.988,0,0,0,.481-3.4,1.844,1.844,0,0,1,.558.834,8.247,8.247,0,0,1,.155,1.817,1.071,1.071,0,0,0,1.05,1.085h0a1.23,1.23,0,0,1-.562-.894c-.076-.6.719-1.759.84-2.793h0c1,.964.836,1.578,1.642,3.352a2.546,2.546,0,0,0,2.7,1.27h0a2.49,2.49,0,0,1-1.645-1.325,20.215,20.215,0,0,1-.5-3.321,3.984,3.984,0,0,0-2.067-2.745,1.838,1.838,0,0,1,.984.194,8.311,8.311,0,0,1,1.394,1.176,1.07,1.07,0,0,0,1.509.025h0a1.233,1.233,0,0,1-1.03-.235c-.505-.391-.633-1.659-1.375-2.443a1.822,1.822,0,0,0-.135-.126,4.389,4.389,0,0,1,.483,0c1.1.07,1.521.579,3.179,1.2a2.545,2.545,0,0,0,2.806-1.01Zm-12.192,3.9a3.953,3.953,0,1,1,3.954-3.953A3.953,3.953,0,0,1,205.819,313.433Z" transform="translate(-179.319 -282.979)" fill="#5b5776"/>
      <circle id="Ellipse_2" data-name="Ellipse 2" cx="1.613" cy="1.613" r="1.613" transform="translate(24.888 24.888)" fill="#5b5776"/>
      <path id="Path_51" data-name="Path 51" d="M211.936,284.068a2.483,2.483,0,0,0-1.726.888,2.461,2.461,0,0,0-1.719-.888,5.088,5.088,0,0,1,.2-.507,7,7,0,0,0,.655-3.093.211.211,0,0,0-.042-.127,2.3,2.3,0,0,1-.465-1.43,2.615,2.615,0,0,1,.176-.944.054.054,0,0,0,.014-.035,1.205,1.205,0,0,1,2.36.021.022.022,0,0,1,.007.014,2.473,2.473,0,0,1,.176.944,2.3,2.3,0,0,1-.458,1.43.211.211,0,0,0-.042.127,7,7,0,0,0,.655,3.093A4.016,4.016,0,0,1,211.936,284.068Z" transform="translate(-183.709 -276.98)" fill="#0a004d"/>
      <path id="Path_52" data-name="Path 52" d="M235.165,289.1c-.014.049-.028.1-.049.176-.007,0-.028.063-.028.063a.444.444,0,0,1-.014.049c-.007.007-.007.014-.014.021a2.478,2.478,0,0,1-.535.8,2.339,2.339,0,0,1-1.339.683.262.262,0,0,0-.127.056,7.091,7.091,0,0,0-1.719,2.649,3.91,3.91,0,0,1-.218.507,2.585,2.585,0,0,0-1.578-.613,1.717,1.717,0,0,0-.268.021,2.468,2.468,0,0,0-.585-1.839,3.039,3.039,0,0,1,.5-.218,7.03,7.03,0,0,0,2.649-1.726.182.182,0,0,0,.063-.12,2.339,2.339,0,0,1,.683-1.339,2.528,2.528,0,0,1,.789-.535.156.156,0,0,0,.035-.021,1.38,1.38,0,0,1,1.508.155A1.291,1.291,0,0,1,235.165,289.1Z" transform="translate(-189.676 -280.106)" fill="#0a004d"/>
      <path id="Path_53" data-name="Path 53" d="M245.206,313.869a1.38,1.38,0,0,1-.965,1.184c-.007,0-.021.007-.028.007a2.527,2.527,0,0,1-2.367-.282.171.171,0,0,0-.134-.042,6.961,6.961,0,0,0-3.086.655,4.015,4.015,0,0,1-.507.2,2.469,2.469,0,0,0-.888-1.726,2.476,2.476,0,0,0,.888-1.719,4.5,4.5,0,0,1,.507.2,7,7,0,0,0,3.093.655.271.271,0,0,0,.127-.042,2.545,2.545,0,0,1,2.367-.289c.014.007.021.007.035.014A1.363,1.363,0,0,1,245.206,313.869Z" transform="translate(-192.199 -287.369)" fill="#0a004d"/>
      <path id="Path_54" data-name="Path 54" d="M234.919,338.569a1.247,1.247,0,0,1-1.191.261l-.056-.014c-.042-.007-.078-.021-.12-.028l-.113-.042-.077.183.014-.211a2.365,2.365,0,0,1-.789-.543,2.33,2.33,0,0,1-.691-1.339.161.161,0,0,0-.056-.12A6.983,6.983,0,0,0,229.19,335a4.24,4.24,0,0,1-.5-.218,2.45,2.45,0,0,0,.585-1.839,2.47,2.47,0,0,0,1.846-.6c.078.148.141.317.218.507a6.984,6.984,0,0,0,1.719,2.649.219.219,0,0,0,.127.063,2.3,2.3,0,0,1,1.332.683,2.677,2.677,0,0,1,.543.789c0,.014.007.021.014.035A1.353,1.353,0,0,1,234.919,338.569Z" transform="translate(-189.676 -293.333)" fill="#0a004d"/>
      <path id="Path_55" data-name="Path 55" d="M211.724,342.285a7.065,7.065,0,0,0-.655,3.086.17.17,0,0,0,.049.127,2.381,2.381,0,0,1,.458,1.437,2.6,2.6,0,0,1-.176.937c-.007.014-.007.021-.014.035a1.347,1.347,0,0,1-1.17.951,1.367,1.367,0,0,1-1.2-.986,2.605,2.605,0,0,1-.176-.937,2.381,2.381,0,0,1,.458-1.437.17.17,0,0,0,.049-.127,6.935,6.935,0,0,0-.662-3.086,4.906,4.906,0,0,1-.2-.507,2.494,2.494,0,0,0,1.719-.888,2.479,2.479,0,0,0,1.719.888A5.1,5.1,0,0,1,211.724,342.285Z" transform="translate(-183.709 -295.859)" fill="#0a004d"/>
      <path id="Path_56" data-name="Path 56" d="M190.365,334.781a5.192,5.192,0,0,1-.507.218,6.984,6.984,0,0,0-2.649,1.719.176.176,0,0,0-.056.127,2.312,2.312,0,0,1-.69,1.332,2.524,2.524,0,0,1-.782.543c-.014.007-.028.007-.035.014a1.365,1.365,0,0,1-1.508-.155,1.112,1.112,0,0,1-.289-.613c-.007-.042-.007-.085-.014-.169a1.251,1.251,0,0,1,.014-.225l-.2-.021.2-.035.014-.1c.007-.035.021-.07.028-.106l.021-.085a2.465,2.465,0,0,1,.613-.979,2.278,2.278,0,0,1,1.339-.683.182.182,0,0,0,.12-.063,6.893,6.893,0,0,0,1.719-2.649c.078-.19.141-.352.218-.5a2.522,2.522,0,0,0,1.846.592A2.455,2.455,0,0,0,190.365,334.781Z" transform="translate(-176.371 -293.336)" fill="#0a004d"/>
      <path id="Path_57" data-name="Path 57" d="M181.289,313.869a2.461,2.461,0,0,0-.881,1.719,3.108,3.108,0,0,1-.507-.2,7,7,0,0,0-3.093-.655.2.2,0,0,0-.127.042,2.549,2.549,0,0,1-2.367.282c-.014,0-.021-.007-.035-.007a1.209,1.209,0,0,1,.007-2.367.026.026,0,0,0,.021-.007,2.557,2.557,0,0,1,2.375.289.174.174,0,0,0,.127.042,7.1,7.1,0,0,0,3.093-.655,4.025,4.025,0,0,1,.507-.2A2.446,2.446,0,0,0,181.289,313.869Z" transform="translate(-173.32 -287.369)" fill="#0a004d"/>
      <path id="Path_58" data-name="Path 58" d="M189.848,293.511A2.47,2.47,0,0,0,188,294.1a5.194,5.194,0,0,1-.218-.507,6.945,6.945,0,0,0-1.719-2.649.174.174,0,0,0-.12-.056,2.351,2.351,0,0,1-1.339-.69,2.449,2.449,0,0,1-.535-.789c-.007-.007-.014-.021-.021-.028a1.378,1.378,0,0,1,.155-1.508,1.283,1.283,0,0,1,1.24-.247.961.961,0,0,1,.169.049.211.211,0,0,1,.07.028c.021.007.042.014.07.021a2.678,2.678,0,0,1,.789.543,2.339,2.339,0,0,1,.683,1.339.219.219,0,0,0,.063.127,7.013,7.013,0,0,0,2.642,1.719,3.822,3.822,0,0,1,.5.211A2.52,2.52,0,0,0,189.848,293.511Z" transform="translate(-176.446 -280.109)" fill="#0a004d"/>
    </g>
  </g>
</svg>
