<svg width="54" height="53" viewBox="0 0 54 53" fill="none" xmlns="http://www.w3.org/2000/svg">
<path d="M26.5015 10.7426C23.3851 10.7426 20.3387 11.6667 17.7475 13.398C15.1563 15.1294 13.1367 17.5902 11.944 20.4694C10.7514 23.3485 10.4393 26.5167 11.0472 29.5732C11.6551 32.6298 13.1557 35.4374 15.3592 37.6411C17.5628 39.8448 20.3703 41.3456 23.4268 41.9537C26.4833 42.5618 29.6515 42.2499 32.5307 41.0574C35.41 39.8649 37.871 37.8455 39.6025 35.2544C41.334 32.6633 42.2583 29.6169 42.2585 26.5005C42.254 22.3228 40.5925 18.3175 37.6385 15.3633C34.6844 12.4091 30.6792 10.7473 26.5015 10.7426ZM26.5015 41.2826C23.58 41.2822 20.7243 40.4155 18.2954 38.7922C15.8664 37.1689 13.9734 34.8618 12.8556 32.1626C11.7377 29.4635 11.4454 26.4935 12.0154 23.6282C12.5855 20.7629 13.9923 18.131 16.0581 16.0652C18.1239 13.9994 20.7558 12.5925 23.6211 12.0225C26.4864 11.4524 29.4564 11.7448 32.1556 12.8626C34.8547 13.9805 37.1618 15.8735 38.7851 18.3024C40.4084 20.7314 41.2751 23.5871 41.2755 26.5085C41.2742 30.427 39.7168 34.1845 36.9458 36.955C34.1747 39.7254 30.4169 41.282 26.4985 41.2826H26.5015Z" fill="#0A004D"/>
<path d="M26.4995 7.22058C26.1545 7.22058 25.8165 7.22757 25.4705 7.24857C25.8769 7.38513 26.2346 7.63748 26.4995 7.97458C26.7659 7.63589 27.1262 7.38333 27.5355 7.24857C27.1905 7.22757 26.8445 7.22058 26.4995 7.22058ZM26.4995 45.0296C26.2318 45.3638 25.8751 45.6155 25.4705 45.7556C25.8155 45.7766 26.1535 45.7836 26.4995 45.7836C26.8455 45.7836 27.1905 45.7766 27.5285 45.7486C27.1222 45.6155 26.7642 45.3653 26.4995 45.0296ZM7.25151 25.4766C7.23051 25.8146 7.22351 26.1526 7.22351 26.4986C7.22351 26.8446 7.23051 27.1746 7.25151 27.5136C7.38931 27.1135 7.63881 26.7613 7.9705 26.4986C7.63494 26.2366 7.38471 25.8809 7.25151 25.4766ZM45.5185 28.4566L45.5325 28.2736C45.5153 27.9489 45.4199 27.6332 45.2543 27.3533C45.0887 27.0735 44.8579 26.8379 44.5815 26.6666C44.5515 26.6497 44.5266 26.6251 44.5093 26.5954C44.4919 26.5657 44.4828 26.532 44.4828 26.4976C44.4828 26.4632 44.4919 26.4294 44.5093 26.3997C44.5266 26.37 44.5515 26.3455 44.5815 26.3286C44.8619 26.1532 45.0952 25.9119 45.261 25.6257C45.4268 25.3395 45.52 25.0171 45.5325 24.6866L45.5185 24.5456C45.5176 24.5157 45.5227 24.486 45.5336 24.4582C45.5444 24.4304 45.5607 24.405 45.5815 24.3836C45.5926 24.3723 45.6058 24.3634 45.6204 24.3574C45.635 24.3513 45.6507 24.3484 45.6665 24.3486C45.2693 20.7377 43.8489 17.3155 41.5725 14.4846C41.5462 14.4982 41.5171 14.5054 41.4875 14.5056H41.4805C41.4527 14.5064 41.4251 14.5012 41.3996 14.4903C41.374 14.4794 41.3511 14.4631 41.3325 14.4426L41.2055 14.3016C40.9649 14.0852 40.6757 13.9299 40.3624 13.8489C40.049 13.768 39.7208 13.7638 39.4055 13.8366C39.3723 13.8461 39.3372 13.8466 39.3038 13.838C39.2704 13.8294 39.2399 13.812 39.2155 13.7876C39.1907 13.7634 39.1731 13.7329 39.1644 13.6994C39.1558 13.6659 39.1565 13.6307 39.1665 13.5976C39.2393 13.2756 39.2331 12.9409 39.1484 12.6219C39.0638 12.3029 38.9033 12.0091 38.6805 11.7656L38.5675 11.6736C38.546 11.6541 38.5292 11.6301 38.5183 11.6032C38.5074 11.5764 38.5027 11.5475 38.5045 11.5186C38.5047 11.489 38.5119 11.4598 38.5255 11.4336C35.6904 9.15907 32.2648 7.74149 28.6515 7.34756C28.6446 7.3765 28.6301 7.40307 28.6095 7.42456C28.5665 7.46253 28.5118 7.48477 28.4545 7.48758L28.2715 7.47357C27.9475 7.48984 27.6324 7.58497 27.3536 7.7507C27.0748 7.91644 26.8406 8.14775 26.6715 8.42456C26.653 8.45477 26.6272 8.47982 26.5964 8.49731C26.5656 8.51481 26.5309 8.52417 26.4955 8.52457C26.4609 8.52487 26.4269 8.51573 26.3971 8.49811C26.3673 8.48048 26.3429 8.45504 26.3265 8.42456C26.1512 8.14411 25.9099 7.91082 25.6237 7.74506C25.3374 7.57929 25.015 7.48609 24.6845 7.47357L24.5435 7.48758C24.4834 7.48806 24.4255 7.46549 24.3815 7.42456C24.3599 7.40144 24.3474 7.37122 24.3465 7.33957C20.7332 7.73661 17.3083 9.15692 14.4745 11.4336C14.487 11.4608 14.4964 11.4893 14.5025 11.5186C14.5002 11.5774 14.4751 11.633 14.4325 11.6736L14.2985 11.7936C14.0818 12.0339 13.9268 12.3233 13.847 12.637C13.7672 12.9506 13.765 13.2789 13.8405 13.5936C13.8476 13.6274 13.8462 13.6625 13.8364 13.6956C13.8267 13.7288 13.8088 13.759 13.7845 13.7836C13.7603 13.8083 13.7299 13.826 13.6964 13.8347C13.6629 13.8433 13.6276 13.8426 13.5945 13.8326C13.2721 13.7594 12.9367 13.7661 12.6174 13.852C12.2981 13.9379 12.0047 14.1005 11.7625 14.3256L11.6705 14.4386C11.6515 14.4587 11.6286 14.4748 11.6031 14.4856C11.5776 14.4964 11.5502 14.5019 11.5225 14.5016H11.5155C11.4836 14.502 11.4521 14.4948 11.4235 14.4806C9.15323 17.3144 7.73575 20.7355 7.3365 24.3446C7.36601 24.3531 7.39452 24.3649 7.42151 24.3796C7.44232 24.401 7.45861 24.4264 7.46944 24.4542C7.48026 24.482 7.48538 24.5117 7.4845 24.5416L7.4705 24.7176C7.48768 25.0423 7.58314 25.358 7.74873 25.6378C7.91433 25.9176 8.14515 26.1533 8.42151 26.3246C8.45001 26.3426 8.47348 26.3675 8.48975 26.3971C8.50601 26.4266 8.51456 26.4598 8.51456 26.4936C8.51456 26.5273 8.50601 26.5605 8.48975 26.59C8.47348 26.6196 8.45001 26.6445 8.42151 26.6626C8.14308 26.8367 7.91107 27.0758 7.74542 27.3594C7.57978 27.643 7.48544 27.9625 7.4705 28.2906L7.4845 28.4526C7.48472 28.4813 7.47927 28.5097 7.46846 28.5363C7.45765 28.5629 7.4417 28.5872 7.42151 28.6076C7.39629 28.6272 7.36738 28.6414 7.3365 28.6496C7.74212 32.257 9.1589 35.6764 11.4235 38.5136C11.4521 38.4993 11.4836 38.4921 11.5155 38.4926C11.5445 38.4901 11.5736 38.4945 11.6006 38.5054C11.6275 38.5164 11.6515 38.5336 11.6705 38.5556L11.7905 38.6896C12.0302 38.9075 12.3193 39.0638 12.633 39.1448C12.9466 39.2258 13.2753 39.2292 13.5905 39.1546C13.6238 39.1479 13.6582 39.1489 13.6911 39.1574C13.724 39.1659 13.7546 39.1817 13.7805 39.2036C13.804 39.2287 13.8214 39.2589 13.8311 39.2919C13.8408 39.3249 13.8427 39.3597 13.8365 39.3936C13.7603 39.7165 13.7647 40.0531 13.8495 40.3738C13.9343 40.6946 14.0967 40.9895 14.3225 41.2326L14.4285 41.3246C14.4508 41.3437 14.4687 41.3675 14.4808 41.3943C14.4929 41.421 14.4989 41.4502 14.4985 41.4796C14.4924 41.5089 14.483 41.5374 14.4705 41.5646C17.3038 43.8369 20.7248 45.2568 24.3345 45.6586C24.3355 45.6423 24.3398 45.6264 24.347 45.6118C24.3542 45.5973 24.3642 45.5843 24.3765 45.5736C24.3939 45.5496 24.4176 45.531 24.445 45.5199C24.4724 45.5087 24.5024 45.5055 24.5315 45.5106L24.7145 45.5176C25.0392 45.5004 25.3549 45.4049 25.6348 45.2393C25.9146 45.0738 26.1502 44.8429 26.3215 44.5666C26.3395 44.5381 26.3645 44.5146 26.394 44.4983C26.4236 44.4821 26.4568 44.4735 26.4905 44.4735C26.5242 44.4735 26.5574 44.4821 26.587 44.4983C26.6165 44.5146 26.6415 44.5381 26.6595 44.5666C26.8328 44.8442 27.0708 45.0757 27.3531 45.2413C27.6354 45.4069 27.9536 45.5017 28.2805 45.5176L28.4425 45.5106C28.4727 45.5054 28.5037 45.5086 28.5322 45.5197C28.5608 45.5307 28.5857 45.5494 28.6045 45.5736C28.6168 45.5843 28.6268 45.5973 28.634 45.6118C28.6412 45.6264 28.6455 45.6423 28.6465 45.6586C32.2554 45.2536 35.6755 43.8341 38.5105 41.5646C38.4969 41.5383 38.4897 41.5092 38.4895 41.4796C38.4863 41.4505 38.4904 41.4212 38.5014 41.3941C38.5124 41.367 38.53 41.3432 38.5525 41.3246L38.6865 41.2046C38.9033 40.962 39.0588 40.6709 39.1397 40.3557C39.2206 40.0406 39.2246 39.7106 39.1515 39.3936C39.1427 39.3604 39.1425 39.3254 39.1511 39.2921C39.1597 39.2589 39.1767 39.2284 39.2005 39.2036C39.2265 39.1817 39.257 39.1659 39.2899 39.1574C39.3228 39.1489 39.3572 39.1479 39.3905 39.1546C39.714 39.2295 40.0509 39.2236 40.3716 39.1377C40.6922 39.0517 40.9869 38.8882 41.2295 38.6616L41.3215 38.5556C41.3415 38.5349 41.3657 38.5186 41.3923 38.5077C41.419 38.4969 41.4477 38.4917 41.4765 38.4926C41.5061 38.4928 41.5352 38.5 41.5615 38.5136C43.8318 35.6797 45.2492 32.2586 45.6485 28.6496C45.6195 28.6427 45.593 28.6282 45.5715 28.6076C45.5348 28.5663 45.5152 28.5127 45.5165 28.4576L45.5185 28.4566ZM26.5015 42.6196C23.3131 42.6196 20.1962 41.6741 17.5452 39.9027C14.8941 38.1313 12.8278 35.6135 11.6076 32.6678C10.3875 29.7221 10.0682 26.4807 10.6903 23.3535C11.3123 20.2263 12.8477 17.3539 15.1022 15.0993C17.3568 12.8447 20.2293 11.3093 23.3565 10.6873C26.4836 10.0653 29.725 10.3845 32.6707 11.6047C35.6165 12.8249 38.1342 14.8912 39.9056 17.5422C41.677 20.1933 42.6225 23.3101 42.6225 26.4986C42.6172 30.7728 40.9168 34.8705 37.8942 37.8927C34.8717 40.9149 30.7738 42.6148 26.4995 42.6196H26.5015ZM13.4015 13.3996C13.3521 12.9768 13.4254 12.5488 13.6125 12.1666C13.104 12.6176 12.624 13.0998 12.1755 13.6106C12.5543 13.4215 12.9803 13.3482 13.4005 13.3996H13.4015ZM13.4015 39.5996C12.9736 39.6467 12.5411 39.5711 12.1545 39.3816C12.6147 39.8932 13.1042 40.3777 13.6205 40.8326C13.4262 40.4544 13.3496 40.0267 13.4005 39.6046L13.4015 39.5996ZM39.6015 39.5996C39.6547 40.0254 39.5787 40.4574 39.3835 40.8396C39.895 40.3817 40.3795 39.8946 40.8345 39.3806C40.4535 39.5751 40.0236 39.653 39.5985 39.6046L39.6015 39.5996ZM45.7525 25.4656C45.6213 25.8728 45.3708 26.2313 45.0335 26.4946C45.3698 26.7602 45.622 27.1176 45.7595 27.5236C45.7805 27.1786 45.7875 26.8406 45.7875 26.4946C45.7875 26.1486 45.7775 25.8086 45.7515 25.4696L45.7525 25.4656ZM39.3895 12.1656C39.5782 12.5473 39.6515 12.9758 39.6005 13.3986C39.6892 13.3846 39.7788 13.3775 39.8685 13.3776C40.2059 13.3809 40.5382 13.4606 40.8405 13.6106C40.3826 13.103 39.8972 12.621 39.3865 12.1666L39.3895 12.1656Z" fill="#0A004D"/>
<path d="M38.6915 26.5485C38.3796 26.7381 38.0297 26.8567 37.6667 26.8958C37.3038 26.9348 36.9367 26.8934 36.5915 26.7745C35.6377 26.1863 34.7346 25.5197 33.8915 24.7815C33.3965 24.453 32.8342 24.2394 32.246 24.1561C31.6577 24.0729 31.0583 24.1223 30.4915 24.3005C30.7126 24.041 31.0013 23.8479 31.3255 23.7425C31.9237 23.6245 32.533 23.5726 33.1425 23.5875C33.4252 23.5913 33.6979 23.4831 33.9012 23.2866C34.1044 23.0901 34.2217 22.8212 34.2275 22.5385C34.1295 22.6927 33.9985 22.8231 33.8438 22.9203C33.6892 23.0175 33.5149 23.079 33.3335 23.1005C32.7035 23.1805 31.5335 22.3815 30.4575 22.3425C31.4695 21.2505 32.0675 21.4425 33.8915 20.6145C34.3604 20.3553 34.7355 19.9548 34.9635 19.4701C35.1915 18.9853 35.2608 18.441 35.1615 17.9145C35.0747 18.2691 34.9111 18.6002 34.6821 18.8845C34.4531 19.1688 34.1645 19.3992 33.8365 19.5595C32.7457 19.8181 31.6352 19.9854 30.5165 20.0595C29.9338 20.1777 29.3849 20.4246 28.91 20.7822C28.435 21.1399 28.0461 21.5992 27.7715 22.1265C27.7437 21.7869 27.8109 21.4462 27.9655 21.1425C28.3052 20.6361 28.6996 20.1686 29.1415 19.7485C29.3443 19.5514 29.4607 19.2819 29.4654 18.9992C29.4701 18.7164 29.3626 18.4433 29.1665 18.2395C29.2063 18.4179 29.2058 18.6029 29.1651 18.781C29.1245 18.9592 29.0447 19.1261 28.9315 19.2695C28.5505 19.7615 27.1595 20.0765 26.3625 20.7775C26.3025 19.2775 26.8625 18.9965 27.5685 17.1175C27.7166 16.603 27.6987 16.0549 27.5174 15.5512C27.336 15.0474 27.0005 14.6136 26.5585 14.3115C26.7481 14.6235 26.8667 14.9734 26.9057 15.3363C26.9448 15.6993 26.9034 16.0664 26.7845 16.4115C26.1963 17.3653 25.5297 18.2685 24.7915 19.1115C24.463 19.6066 24.2493 20.1688 24.1661 20.7571C24.0829 21.3454 24.1322 21.9448 24.3105 22.5115C24.0512 22.2907 23.8581 22.0024 23.7525 21.6785C23.6339 21.0801 23.5819 20.4704 23.5975 19.8605C23.6013 19.5777 23.493 19.3048 23.2962 19.1015C23.0995 18.8982 22.8304 18.7811 22.5475 18.7755C22.7017 18.8735 22.8321 19.0045 22.9294 19.1591C23.0266 19.3138 23.0881 19.4881 23.1095 19.6695C23.1875 20.2825 22.3425 21.4095 22.2605 22.4595C21.2695 21.4985 21.4285 20.8835 20.6235 19.1115C20.3643 18.6427 19.9638 18.2676 19.4791 18.0396C18.9943 17.8115 18.45 17.7422 17.9235 17.8415C18.2781 17.9283 18.6092 18.092 18.8935 18.321C19.1778 18.5499 19.4082 18.8386 19.5685 19.1665C19.8271 20.2574 19.9943 21.3679 20.0685 22.4865C20.1864 23.0695 20.4332 23.6186 20.7908 24.0938C21.1485 24.5689 21.608 24.958 22.1355 25.2325C21.7958 25.2596 21.4552 25.1921 21.1515 25.0375C20.6451 24.6979 20.1776 24.3035 19.7575 23.8615C19.5604 23.6588 19.2909 23.5423 19.0082 23.5377C18.7254 23.533 18.4523 23.6404 18.2485 23.8365C18.4269 23.7968 18.6119 23.7973 18.79 23.8379C18.9682 23.8786 19.1351 23.9584 19.2785 24.0715C19.7835 24.4625 19.9115 25.8245 20.6535 26.6085L20.6885 26.6435C20.5605 26.6435 20.4325 26.6435 20.3055 26.6365C19.2055 26.5665 18.7845 26.0585 17.1265 25.4365C16.612 25.2885 16.0639 25.3064 15.5602 25.4877C15.0564 25.669 14.6226 26.0045 14.3205 26.4465C14.6325 26.2569 14.9824 26.1384 15.3453 26.0993C15.7083 26.0602 16.0754 26.1016 16.4205 26.2205C17.3743 26.8087 18.2775 27.4753 19.1205 28.2135C19.6156 28.542 20.1778 28.7557 20.7661 28.8389C21.3544 28.9222 21.9538 28.8728 22.5205 28.6945C22.2996 28.9542 22.0109 29.1474 21.6865 29.2525C21.0885 29.3713 20.4791 29.4232 19.8695 29.4075C19.5867 29.4038 19.3138 29.5121 19.1105 29.7088C18.9072 29.9055 18.7901 30.1747 18.7845 30.4575C18.8824 30.3033 19.0134 30.1728 19.1681 30.0756C19.3227 29.9784 19.4971 29.9169 19.6785 29.8955C20.3095 29.8155 21.2945 30.8065 22.3675 30.8445C22.3185 30.8915 22.2675 30.9385 22.2185 30.9835C21.3875 31.7145 20.7335 31.6485 19.1185 32.3835C18.6498 32.6429 18.2748 33.0434 18.0468 33.5281C17.8188 34.0128 17.7494 34.5571 17.8485 35.0835C17.9353 34.729 18.099 34.3979 18.328 34.1136C18.5569 33.8293 18.8456 33.5989 19.1735 33.4385C20.2644 33.18 21.3749 33.0127 22.4935 32.9385C23.0763 32.8207 23.6253 32.5739 24.1003 32.2162C24.5753 31.8585 24.9642 31.3991 25.2385 30.8715C25.2663 31.2112 25.1992 31.5519 25.0445 31.8555C24.7049 32.3619 24.3105 32.8294 23.8685 33.2495C23.6658 33.4467 23.5493 33.7161 23.5447 33.9989C23.54 34.2816 23.6474 34.5548 23.8435 34.7585C23.8038 34.5802 23.8043 34.3952 23.8449 34.217C23.8856 34.0389 23.9654 33.872 24.0785 33.7285C24.4585 33.2365 25.8535 33.0115 26.6505 32.3135C26.6835 33.7305 26.1325 34.0415 25.4425 35.8805C25.2943 36.395 25.3121 36.9432 25.4935 37.447C25.6748 37.9507 26.0104 38.3845 26.4525 38.6865C26.2629 38.3746 26.1444 38.0247 26.1053 37.6617C26.0663 37.2988 26.1076 36.9317 26.2265 36.5865C26.8146 35.6326 27.4812 34.7295 28.2195 33.8865C28.5479 33.3914 28.7615 32.8292 28.8447 32.241C28.9279 31.6527 28.8787 31.0533 28.7005 30.4865C28.96 30.7076 29.1532 30.9963 29.2585 31.3205C29.3772 31.9186 29.4292 32.528 29.4135 33.1375C29.4098 33.4204 29.5181 33.6933 29.7148 33.8965C29.9115 34.0998 30.1807 34.217 30.4635 34.2225C30.3094 34.1246 30.1789 33.9935 30.0817 33.8389C29.9845 33.6843 29.9229 33.5099 29.9015 33.3285C29.8255 32.7285 30.6205 31.5695 30.7415 30.5355C31.7415 31.4995 31.5775 32.1135 32.3835 33.8875C32.6427 34.3564 33.0432 34.7315 33.528 34.9595C34.0128 35.1875 34.5571 35.2568 35.0835 35.1575C34.729 35.0707 34.3978 34.9071 34.1136 34.6781C33.8293 34.4491 33.5988 34.1604 33.4385 33.8325C33.18 32.7413 33.0128 31.6305 32.9385 30.5115C32.8207 29.9287 32.5739 29.3797 32.2162 28.9047C31.8585 28.4297 31.3991 28.0408 30.8715 27.7665C31.2112 27.7387 31.5519 27.8059 31.8555 27.9605C32.3619 28.3002 32.8294 28.6946 33.2495 29.1365C33.4467 29.3393 33.7161 29.4557 33.9989 29.4604C34.2816 29.4651 34.5548 29.3576 34.7585 29.1615C34.5802 29.2011 34.3952 29.2006 34.2171 29.1599C34.039 29.1193 33.8721 29.0396 33.7285 28.9265C33.2235 28.5355 33.0955 27.2675 32.3535 26.4835C32.3107 26.4393 32.2656 26.3972 32.2185 26.3575C32.3794 26.3487 32.5406 26.3487 32.7015 26.3575C33.8015 26.4275 34.2225 26.9365 35.8805 27.5575C36.395 27.7057 36.9432 27.6879 37.447 27.5066C37.9507 27.3253 38.3845 26.9897 38.6865 26.5475L38.6915 26.5485ZM26.4995 30.4485C25.7177 30.4483 24.9536 30.2163 24.3036 29.7818C23.6537 29.3473 23.1472 28.7299 22.8481 28.0076C22.5491 27.2853 22.471 26.4905 22.6236 25.7237C22.7763 24.957 23.1528 24.2527 23.7057 23.7C24.2586 23.1472 24.9629 22.7709 25.7297 22.6184C26.4965 22.466 27.2912 22.5443 28.0135 22.8435C28.7358 23.1428 29.3531 23.6494 29.7874 24.2995C30.2217 24.9495 30.4535 25.7138 30.4535 26.4955C30.454 27.0151 30.3522 27.5296 30.1537 28.0097C29.9552 28.4899 29.664 28.9262 29.2968 29.2937C28.9296 29.6612 28.4935 29.9527 28.0135 30.1515C27.5335 30.3504 27.0191 30.4527 26.4995 30.4525V30.4485Z" fill="#5B5776"/>
<path d="M26.5005 28.1125C27.3913 28.1125 28.1135 27.3904 28.1135 26.4995C28.1135 25.6087 27.3913 24.8865 26.5005 24.8865C25.6097 24.8865 24.8875 25.6087 24.8875 26.4995C24.8875 27.3904 25.6097 28.1125 26.5005 28.1125Z" fill="#5B5776"/>
<path d="M28.2265 7.08653C27.8939 7.11106 27.5697 7.20234 27.2732 7.35491C26.9766 7.50747 26.7139 7.7182 26.5005 7.97453C26.2889 7.71806 26.0274 7.50713 25.7319 7.35451C25.4365 7.20189 25.1132 7.11073 24.7815 7.08653C24.8391 6.91408 24.9058 6.74485 24.9815 6.57955C25.4329 5.61199 25.6569 4.55399 25.6365 3.48653C25.6367 3.44076 25.6219 3.3962 25.5945 3.35954C25.2837 2.94844 25.1199 2.44485 25.1295 1.92955C25.1294 1.60672 25.1891 1.28666 25.3055 0.985552C25.3142 0.975946 25.3192 0.963518 25.3195 0.950548C25.3781 0.67957 25.5283 0.437049 25.7448 0.263903C25.9613 0.0907564 26.2309 -0.00241902 26.5081 4.77503e-05C26.7853 0.00251452 27.0532 0.100481 27.2666 0.277453C27.48 0.454424 27.6258 0.699567 27.6795 0.971544C27.6835 0.975195 27.686 0.980185 27.6865 0.985552C27.8063 1.2857 27.8661 1.60641 27.8625 1.92955C27.8741 2.44403 27.7129 2.94754 27.4045 3.35954C27.3771 3.3962 27.3624 3.44076 27.3625 3.48653C27.3421 4.55399 27.5662 5.61199 28.0175 6.57955C28.0987 6.74359 28.1685 6.91297 28.2265 7.08653Z" fill="#0A004D"/>
<path d="M45.4885 8.99259C45.4745 9.04159 45.4605 9.09258 45.4395 9.16858C45.4325 9.16858 45.4115 9.23157 45.4115 9.23157C45.4078 9.24816 45.4031 9.26453 45.3975 9.28058C45.3905 9.28758 45.3905 9.29458 45.3835 9.30158C45.2592 9.60064 45.0774 9.87245 44.8485 10.1016C44.4895 10.4704 44.0189 10.7104 43.5095 10.7846C43.4629 10.7915 43.4191 10.8108 43.3825 10.8406C42.6177 11.5831 42.0301 12.4886 41.6635 13.4896C41.6029 13.6635 41.53 13.8329 41.4455 13.9966C41.0032 13.6209 40.4474 13.405 39.8675 13.3836C39.7778 13.3836 39.6882 13.3906 39.5995 13.4046C39.6306 13.0745 39.5947 12.7415 39.4942 12.4255C39.3937 12.1096 39.2306 11.8171 39.0145 11.5656C39.1743 11.4781 39.3417 11.4051 39.5145 11.3476C40.5171 10.9808 41.423 10.3906 42.1635 9.62158C42.1992 9.59119 42.2218 9.54821 42.2265 9.50159C42.3007 8.99227 42.5407 8.5216 42.9095 8.16257C43.1362 7.93581 43.404 7.75425 43.6985 7.62756C43.7111 7.62213 43.7228 7.61507 43.7335 7.60657C43.9726 7.4824 44.2428 7.43092 44.5107 7.45847C44.7787 7.48601 45.0327 7.59137 45.2415 7.76157C45.384 7.92878 45.4815 8.12962 45.5248 8.34503C45.568 8.56045 45.5555 8.78333 45.4885 8.99259Z" fill="#0A004D"/>
<path d="M53.0065 26.4986C52.9801 26.769 52.8744 27.0256 52.7028 27.2363C52.5311 27.4469 52.3011 27.6022 52.0415 27.6826C52.0345 27.6826 52.0205 27.6896 52.0135 27.6896C51.6262 27.8409 51.2076 27.8944 50.7947 27.8452C50.3818 27.796 49.9874 27.6457 49.6465 27.4076C49.6284 27.3915 49.6071 27.3794 49.584 27.3722C49.5609 27.365 49.5366 27.3627 49.5125 27.3656C48.4473 27.3449 47.3915 27.5689 46.4265 28.0206C46.2623 28.0986 46.0929 28.1655 45.9195 28.2206C45.8958 27.8878 45.8049 27.5633 45.6523 27.2667C45.4996 26.97 45.2885 26.7073 45.0315 26.4946C45.2874 26.2823 45.4978 26.0207 45.6504 25.7254C45.8029 25.4301 45.8945 25.107 45.9195 24.7756C46.0924 24.8319 46.2617 24.8987 46.4265 24.9756C47.3941 25.4269 48.4521 25.651 49.5195 25.6306C49.5647 25.6274 49.6084 25.613 49.6465 25.5886C49.9875 25.3508 50.3815 25.2001 50.7941 25.1497C51.2067 25.0993 51.6254 25.1508 52.0135 25.2996C52.0275 25.3066 52.0345 25.3066 52.0485 25.3136C52.3081 25.3932 52.5379 25.5486 52.7086 25.7597C52.8793 25.9708 52.983 26.2281 53.0065 26.4986Z" fill="#0A004D"/>
<path d="M45.2425 45.2346C45.0829 45.3764 44.8896 45.4748 44.6811 45.5205C44.4726 45.5662 44.2558 45.5576 44.0515 45.4955L43.9955 45.4816C43.9535 45.4746 43.9175 45.4606 43.8755 45.4536L43.7625 45.4116L43.6855 45.5945L43.6995 45.3835C43.4022 45.2583 43.1337 45.0735 42.9105 44.8405C42.5382 44.4831 42.2952 44.0121 42.2195 43.5016C42.2192 43.4787 42.2141 43.4562 42.2044 43.4355C42.1948 43.4149 42.1808 43.3964 42.1635 43.3816C41.4228 42.6148 40.5163 42.0278 39.5135 41.6656C39.3423 41.6037 39.1753 41.5309 39.0135 41.4476C39.2304 41.1966 39.3941 40.9042 39.4947 40.5881C39.5953 40.272 39.6306 39.9387 39.5985 39.6086C39.9308 39.6384 40.2657 39.6006 40.5829 39.4975C40.9002 39.3944 41.1933 39.228 41.4445 39.0085C41.5225 39.1565 41.5855 39.3256 41.6625 39.5156C42.0258 40.5182 42.6138 41.4244 43.3815 42.1646C43.4157 42.1991 43.4604 42.2212 43.5085 42.2276C44.0163 42.3003 44.4851 42.5407 44.8405 42.9106C45.0675 43.1388 45.2514 43.4061 45.3835 43.6996C45.3835 43.7136 45.3905 43.7206 45.3975 43.7346C45.5235 43.9717 45.576 44.241 45.5484 44.5081C45.5208 44.7753 45.4143 45.0281 45.2425 45.2346Z" fill="#0A004D"/>
<path d="M28.0145 46.4245C27.5664 47.3907 27.3425 48.4456 27.3595 49.5105C27.3585 49.5339 27.3623 49.5573 27.3707 49.5791C27.3792 49.601 27.392 49.6209 27.4085 49.6375C27.7129 50.0542 27.8736 50.5585 27.8665 51.0745C27.8661 51.395 27.8064 51.7127 27.6905 52.0115C27.6835 52.0255 27.6835 52.0325 27.6765 52.0465C27.5986 52.3037 27.4455 52.5316 27.237 52.701C27.0285 52.8705 26.7741 52.9738 26.5065 52.9975C26.2301 52.9744 25.9672 52.8676 25.7529 52.6915C25.5385 52.5154 25.3829 52.2782 25.3065 52.0115C25.1907 51.7127 25.131 51.395 25.1305 51.0745C25.1234 50.5585 25.2842 50.0542 25.5885 49.6375C25.605 49.6209 25.6178 49.601 25.6263 49.5791C25.6347 49.5573 25.6385 49.5339 25.6375 49.5105C25.657 48.4447 25.4304 47.3886 24.9755 46.4245C24.8995 46.2594 24.8327 46.0901 24.7755 45.9175C25.1067 45.8915 25.4294 45.7995 25.7246 45.647C26.0198 45.4945 26.2816 45.2846 26.4945 45.0295C26.7069 45.2852 26.9685 45.4956 27.2638 45.6482C27.5591 45.8007 27.8821 45.8923 28.2135 45.9175C28.1563 46.09 28.0898 46.2592 28.0145 46.4245Z" fill="#0A004D"/>
<path d="M13.9935 41.4435C13.8285 41.5251 13.6593 41.5979 13.4865 41.6615C12.4839 42.0248 11.5777 42.6128 10.8375 43.3805C10.8201 43.3968 10.8061 43.4165 10.7965 43.4383C10.7869 43.4601 10.7818 43.4837 10.7815 43.5075C10.706 44.0159 10.4632 44.4846 10.0915 44.8395C9.86766 45.0685 9.60228 45.2528 9.30952 45.3825C9.29552 45.3895 9.28152 45.3895 9.27452 45.3965C9.03598 45.5226 8.76543 45.5752 8.49702 45.5476C8.22862 45.52 7.97442 45.4135 7.76653 45.2415C7.60876 45.0723 7.50773 44.858 7.47752 44.6285C7.47052 44.5865 7.47053 44.5435 7.46353 44.4595C7.46142 44.3843 7.4661 44.309 7.47752 44.2345L7.27753 44.2135L7.47752 44.1785L7.49153 44.0785C7.49853 44.0435 7.51253 44.0085 7.51953 43.9725L7.54053 43.8875C7.66444 43.5173 7.87453 43.1817 8.15352 42.9085C8.50972 42.5359 8.98177 42.2951 9.49252 42.2255C9.53914 42.2208 9.58212 42.1982 9.61252 42.1625C10.3828 41.4245 10.9712 40.5177 11.3315 39.5135C11.4095 39.3235 11.4725 39.1615 11.5495 39.0135C11.803 39.2291 12.0966 39.3924 12.4134 39.494C12.7302 39.5956 13.064 39.6335 13.3955 39.6055C13.3656 39.9364 13.4032 40.2699 13.506 40.5859C13.6088 40.9018 13.7747 41.1936 13.9935 41.4435Z" fill="#0A004D"/>
<path d="M7.96853 26.4985C7.71333 26.7108 7.50373 26.9726 7.35233 27.268C7.20093 27.5634 7.11085 27.8864 7.08753 28.2176C6.913 28.1659 6.74334 28.0989 6.58053 28.0175C5.61297 27.5662 4.55498 27.3421 3.48752 27.3625C3.44162 27.3616 3.39678 27.3764 3.36052 27.4045C3.01884 27.6409 2.62457 27.7901 2.21203 27.8393C1.79948 27.8884 1.38117 27.836 0.99352 27.6866C0.97952 27.6866 0.972532 27.6795 0.958532 27.6795C0.686796 27.622 0.443154 27.4726 0.268591 27.2566C0.094027 27.0405 -0.00081614 26.771 5.29122e-06 26.4932C0.000826722 26.2154 0.0972688 25.9464 0.273107 25.7314C0.448945 25.5164 0.693449 25.3685 0.96552 25.3126C0.96932 25.313 0.973182 25.3126 0.976812 25.3114C0.980442 25.3102 0.983762 25.3082 0.986532 25.3055C1.37596 25.1564 1.79595 25.1048 2.20991 25.1552C2.62386 25.2055 3.01923 25.3564 3.36153 25.5945C3.37888 25.6096 3.39903 25.621 3.42083 25.6282C3.44262 25.6354 3.46564 25.6383 3.48853 25.6365C4.55566 25.6534 5.61285 25.4296 6.58152 24.9815C6.7458 24.9035 6.9152 24.8367 7.08852 24.7816C7.11113 25.1125 7.20081 25.4353 7.35209 25.7305C7.50337 26.0256 7.71309 26.287 7.96853 26.4985Z" fill="#0A004D"/>
<path d="M13.4015 13.4005C13.0697 13.3689 12.7349 13.4048 12.4173 13.5061C12.0997 13.6073 11.8059 13.7718 11.5535 13.9896C11.4719 13.8245 11.3991 13.6553 11.3355 13.4825C10.9735 12.4793 10.3853 11.5728 9.61652 10.8336C9.58547 10.7998 9.54233 10.7797 9.49651 10.7776C8.98658 10.7006 8.5161 10.4582 8.15752 10.0876C7.92923 9.86214 7.74745 9.59406 7.62252 9.29855C7.61552 9.29155 7.60852 9.27757 7.60152 9.27057C7.4771 9.03158 7.42548 8.76134 7.45302 8.49332C7.48057 8.22529 7.58609 7.97122 7.75652 7.76254C7.92429 7.6178 8.12668 7.51899 8.34398 7.47571C8.56129 7.43242 8.78609 7.44616 8.99651 7.51556C9.05422 7.52669 9.1108 7.54308 9.16552 7.56454C9.19034 7.5696 9.21406 7.5791 9.23553 7.59256C9.25653 7.59956 9.27752 7.60656 9.30552 7.61356C9.59901 7.74567 9.86629 7.92961 10.0945 8.15655C10.4633 8.51559 10.7034 8.98622 10.7775 9.49554C10.7839 9.54369 10.806 9.58838 10.8405 9.62256C11.5793 10.3886 12.4828 10.9764 13.4825 11.3416C13.654 11.3999 13.8211 11.4705 13.9825 11.5526C13.7686 11.807 13.6071 12.1013 13.5073 12.4185C13.4076 12.7357 13.3717 13.0694 13.4015 13.4005Z" fill="#0A004D"/>
</svg>
